<svg width="40" height="40" viewBox="0 0 40 40" fill="none" xmlns="http://www.w3.org/2000/svg">
<rect width="40" height="40" fill="white"/>
<rect width="40" height="40" rx="2" fill="#1C1C1C"/>
<g filter="url(#filter0_d_25_14)">
<path d="M24.2656 23.0469V18.5625C24.2656 17.9479 24.1458 17.3698 23.9062 16.8281C23.6771 16.276 23.3594 15.7969 22.9531 15.3906C22.5469 14.9844 22.0677 14.6667 21.5156 14.4375C20.974 14.1979 20.3958 14.0781 19.7812 14.0781C19.1667 14.0781 18.5833 14.1979 18.0312 14.4375C17.4896 14.6667 17.0156 14.9844 16.6094 15.3906C16.2031 15.7969 15.8802 16.276 15.6406 16.8281C15.4115 17.3698 15.2969 17.9479 15.2969 18.5625V23.0469H24.2656ZM28.75 32H24.2656V27.5156H15.2969V32H10.8281V18.5625C10.8281 17.3229 11.0625 16.1615 11.5312 15.0781C12 13.9844 12.6354 13.0312 13.4375 12.2188C14.25 11.4062 15.1979 10.7656 16.2812 10.2969C17.375 9.82812 18.5417 9.59375 19.7812 9.59375C21.0208 9.59375 22.1823 9.82812 23.2656 10.2969C24.3594 10.7656 25.3125 11.4062 26.125 12.2188C26.9375 13.0312 27.5781 13.9844 28.0469 15.0781C28.5156 16.1615 28.75 17.3229 28.75 18.5625V32Z" fill="#F3F3F3"/>
</g>
<defs>
<filter id="filter0_d_25_14" x="10.8281" y="9.59375" width="19.9219" height="24.4062" filterUnits="userSpaceOnUse" color-interpolation-filters="sRGB">
<feFlood flood-opacity="0" result="BackgroundImageFix"/>
<feColorMatrix in="SourceAlpha" type="matrix" values="0 0 0 0 0 0 0 0 0 0 0 0 0 0 0 0 0 0 127 0" result="hardAlpha"/>
<feOffset dx="1" dy="1"/>
<feGaussianBlur stdDeviation="0.5"/>
<feComposite in2="hardAlpha" operator="out"/>
<feColorMatrix type="matrix" values="0 0 0 0 0 0 0 0 0 0 0 0 0 0 0 0 0 0 0.6 0"/>
<feBlend mode="normal" in2="BackgroundImageFix" result="effect1_dropShadow_25_14"/>
<feBlend mode="normal" in="SourceGraphic" in2="effect1_dropShadow_25_14" result="shape"/>
</filter>
</defs>
</svg>
