<svg width="231" height="100" viewBox="0 0 231 100" fill="none" xmlns="http://www.w3.org/2000/svg">
<g filter="url(#filter0_d_3_104)">
<path fill-rule="evenodd" clip-rule="evenodd" d="M62.4558 77H70V62H62.4853L69.9706 69.4853L62.4558 77Z" fill="#CC0000"/>
<path d="M213 77L207 83V77H213Z" fill="#660000"/>
<rect x="70" y="62" width="143" height="15" fill="#CC0000"/>
<g filter="url(#filter1_d_3_104)">
<path d="M85.7092 72H84.0047L84.9102 66.5455H86.6467C87.1758 66.5455 87.6117 66.6564 87.9544 66.8784C88.2989 67.1003 88.5386 67.4173 88.6735 67.8292C88.8103 68.2411 88.8307 68.733 88.7348 69.3047C88.6425 69.8658 88.4631 70.3478 88.1968 70.7509C87.9322 71.1522 87.5895 71.4611 87.1687 71.6777C86.7497 71.8926 86.2632 72 85.7092 72ZM84.7637 71.4141H85.7305C86.1815 71.4141 86.5704 71.3253 86.8971 71.1477C87.2256 70.9702 87.4901 70.7172 87.6908 70.3887C87.8932 70.0602 88.0317 69.6705 88.1062 69.2195C88.1808 68.7862 88.1737 68.4142 88.0849 68.1035C87.9979 67.791 87.8266 67.5513 87.5709 67.3844C87.317 67.2157 86.977 67.1314 86.5508 67.1314H85.4722L84.7637 71.4141ZM89.3101 72L89.9919 67.9091H90.5991L90.4926 68.527H90.5352C90.6418 68.3246 90.8042 68.1603 91.0226 68.0343C91.241 67.9082 91.4727 67.8452 91.7177 67.8452C91.7657 67.8452 91.8234 67.8461 91.8909 67.8478C91.9583 67.8478 92.0107 67.8505 92.048 67.8558L91.9415 68.495C91.9202 68.4897 91.8722 68.4817 91.7976 68.4711C91.7231 68.4586 91.6432 68.4524 91.5579 68.4524C91.3591 68.4524 91.1753 68.4941 91.0066 68.5776C90.838 68.6593 90.6968 68.7729 90.5832 68.9185C90.4695 69.0623 90.3967 69.2266 90.3648 69.4112L89.9386 72H89.3101ZM92.1152 72L92.7971 67.9091H93.4256L92.7438 72H92.1152ZM93.3031 67.2166C93.1806 67.2166 93.0749 67.1749 92.9862 67.0914C92.8992 67.008 92.8557 66.9077 92.8557 66.7905C92.8557 66.6733 92.8992 66.573 92.9862 66.4895C93.0749 66.4061 93.1806 66.3643 93.3031 66.3643C93.4256 66.3643 93.5304 66.4061 93.6174 66.4895C93.7062 66.573 93.7505 66.6733 93.7505 66.7905C93.7505 66.9077 93.7062 67.008 93.6174 67.0914C93.5304 67.1749 93.4256 67.2166 93.3031 67.2166ZM97.922 67.9091L95.7274 72H95.0882L94.2573 67.9091H94.9124L95.4984 71.169H95.541L97.2136 67.9091H97.922ZM98.0698 72L98.7517 67.9091H99.3802L98.6984 72H98.0698ZM99.2577 67.2166C99.1352 67.2166 99.0295 67.1749 98.9408 67.0914C98.8538 67.008 98.8103 66.9077 98.8103 66.7905C98.8103 66.6733 98.8538 66.573 98.9408 66.4895C99.0295 66.4061 99.1352 66.3643 99.2577 66.3643C99.3802 66.3643 99.485 66.4061 99.572 66.4895C99.6607 66.573 99.7051 66.6733 99.7051 66.7905C99.7051 66.9077 99.6607 67.008 99.572 67.0914C99.485 67.1749 99.3802 67.2166 99.2577 67.2166ZM100.883 69.5391L100.478 72H99.8496L100.531 67.9091H101.139L101.032 68.5483H101.085C101.213 68.3406 101.386 68.1737 101.605 68.0476C101.823 67.9197 102.087 67.8558 102.396 67.8558C102.669 67.8558 102.9 67.9126 103.088 68.0263C103.278 68.1381 103.412 68.3086 103.49 68.5376C103.57 68.7649 103.582 69.0526 103.525 69.4006L103.088 72H102.46L102.886 69.4432C102.939 69.1236 102.897 68.8732 102.761 68.6921C102.626 68.511 102.412 68.4205 102.119 68.4205C101.916 68.4205 101.729 68.464 101.557 68.551C101.386 68.638 101.242 68.7649 101.123 68.9318C101.006 69.0987 100.926 69.3011 100.883 69.5391ZM105.632 73.6193C105.327 73.6193 105.071 73.5803 104.865 73.5021C104.659 73.4258 104.494 73.3246 104.37 73.1985C104.246 73.0742 104.152 72.9411 104.088 72.799L104.652 72.4474C104.695 72.522 104.75 72.6072 104.817 72.7031C104.885 72.8008 104.987 72.8851 105.124 72.9561C105.262 73.0289 105.457 73.0653 105.707 73.0653C106.035 73.0653 106.323 72.9854 106.57 72.8256C106.817 72.6658 106.969 72.4155 107.028 72.0746L107.156 71.2436H107.103C107.046 71.3182 106.967 71.4105 106.866 71.5206C106.764 71.6289 106.629 71.7257 106.458 71.8109C106.288 71.8944 106.069 71.9361 105.803 71.9361C105.471 71.9361 105.187 71.858 104.951 71.7017C104.714 71.5455 104.545 71.3182 104.442 71.0199C104.341 70.7216 104.326 70.3594 104.397 69.9332C104.466 69.5142 104.599 69.1493 104.796 68.8386C104.995 68.5261 105.24 68.2846 105.531 68.1142C105.822 67.9419 106.14 67.8558 106.485 67.8558C106.751 67.8558 106.955 67.9002 107.097 67.989C107.241 68.076 107.346 68.1754 107.412 68.2873C107.477 68.3974 107.527 68.4879 107.561 68.5589H107.625L107.731 67.9091H108.338L107.646 72.1172C107.587 72.4688 107.46 72.7546 107.265 72.9748C107.07 73.1967 106.83 73.3592 106.546 73.4622C106.262 73.5669 105.957 73.6193 105.632 73.6193ZM105.963 71.3714C106.213 71.3714 106.436 71.3137 106.631 71.1983C106.828 71.0829 106.992 70.9169 107.121 70.7003C107.251 70.4837 107.341 70.2244 107.39 69.9226C107.44 69.6278 107.436 69.3677 107.38 69.1422C107.323 68.9167 107.215 68.7401 107.057 68.6122C106.901 68.4844 106.696 68.4205 106.442 68.4205C106.174 68.4205 105.942 68.4879 105.747 68.6229C105.553 68.7578 105.396 68.9389 105.276 69.1662C105.155 69.3935 105.071 69.6456 105.025 69.9226C104.979 70.2067 104.981 70.4579 105.031 70.6763C105.08 70.8929 105.181 71.0634 105.334 71.1877C105.489 71.3102 105.698 71.3714 105.963 71.3714ZM115.348 68.25C115.322 68.0707 115.276 67.91 115.21 67.7679C115.146 67.6241 115.061 67.5025 114.954 67.4031C114.848 67.3018 114.719 67.2246 114.568 67.1713C114.419 67.1163 114.246 67.0888 114.049 67.0888C113.725 67.0888 113.413 67.1722 113.111 67.3391C112.811 67.506 112.551 67.752 112.331 68.0769C112.112 68.4018 111.964 68.8004 111.886 69.2727C111.808 69.745 111.816 70.1436 111.91 70.4686C112.006 70.7935 112.17 71.0394 112.403 71.2063C112.637 71.3732 112.923 71.4567 113.26 71.4567C113.573 71.4567 113.864 71.3901 114.134 71.2569C114.404 71.122 114.63 70.932 114.813 70.687C114.996 70.4402 115.114 70.1499 115.167 69.8161L115.359 69.8587H113.718L113.825 69.2727H115.902L115.796 69.8587C115.725 70.3097 115.567 70.7012 115.322 71.0332C115.077 71.3652 114.771 71.6218 114.406 71.8029C114.04 71.984 113.64 72.0746 113.207 72.0746C112.724 72.0746 112.319 71.9609 111.993 71.7337C111.666 71.5064 111.436 71.1832 111.303 70.7642C111.17 70.3452 111.151 69.848 111.247 69.2727C111.316 68.8413 111.437 68.4533 111.609 68.1088C111.783 67.7626 111.996 67.4679 112.248 67.2246C112.502 66.9814 112.785 66.7949 113.098 66.6653C113.412 66.5357 113.743 66.4709 114.091 66.4709C114.379 66.4709 114.64 66.5144 114.874 66.6014C115.11 66.6866 115.314 66.8082 115.484 66.9663C115.655 67.1225 115.787 67.3098 115.881 67.5282C115.975 67.7449 116.025 67.9854 116.03 68.25H115.348ZM116.49 72L117.172 67.9091H117.779L117.673 68.527H117.715C117.822 68.3246 117.984 68.1603 118.203 68.0343C118.421 67.9082 118.653 67.8452 118.898 67.8452C118.946 67.8452 119.004 67.8461 119.071 67.8478C119.139 67.8478 119.191 67.8505 119.228 67.8558L119.122 68.495C119.1 68.4897 119.052 68.4817 118.978 68.4711C118.903 68.4586 118.823 68.4524 118.738 68.4524C118.539 68.4524 118.355 68.4941 118.187 68.5776C118.018 68.6593 117.877 68.7729 117.763 68.9185C117.65 69.0623 117.577 69.2266 117.545 69.4112L117.119 72H116.49ZM120.859 72.0852C120.483 72.0852 120.168 71.9956 119.914 71.8162C119.66 71.6369 119.481 71.3857 119.376 71.0625C119.273 70.7393 119.256 70.3629 119.325 69.9332C119.393 69.5142 119.527 69.1493 119.728 68.8386C119.93 68.5261 120.181 68.2846 120.481 68.1142C120.783 67.9419 121.115 67.8558 121.477 67.8558C121.854 67.8558 122.168 67.9464 122.42 68.1275C122.674 68.3068 122.853 68.5589 122.958 68.8839C123.063 69.207 123.081 69.5852 123.011 70.0185C122.944 70.4339 122.808 70.7971 122.604 71.1078C122.402 71.4167 122.15 71.6573 121.85 71.8295C121.552 72 121.222 72.0852 120.859 72.0852ZM120.87 71.5206C121.158 71.5206 121.407 71.4469 121.619 71.2995C121.832 71.1522 122.004 70.9577 122.135 70.7163C122.268 70.4748 122.358 70.2138 122.404 69.9332C122.447 69.6669 122.445 69.4192 122.399 69.1902C122.353 68.9593 122.254 68.7738 122.103 68.6335C121.952 68.4915 121.74 68.4205 121.467 68.4205C121.179 68.4205 120.928 68.495 120.713 68.6442C120.5 68.7933 120.328 68.9895 120.196 69.2328C120.065 69.476 119.977 69.7379 119.933 70.0185C119.89 70.2848 119.891 70.5325 119.935 70.7615C119.981 70.9888 120.08 71.1726 120.231 71.3129C120.384 71.4513 120.597 71.5206 120.87 71.5206ZM124.434 72L123.869 67.9091H124.53L124.892 71.0412H124.934L126.33 67.9091H127.001L127.342 71.0305H127.385L128.791 67.9091H129.451L127.523 72H126.905L126.532 68.8572H126.468L125.052 72H124.434ZM132.062 67.9091L131.976 68.4418H129.856L129.942 67.9091H132.062ZM130.719 66.929H131.348L130.698 70.8281C130.669 71.0057 130.674 71.1388 130.711 71.2276C130.75 71.3146 130.809 71.3732 130.887 71.4034C130.967 71.4318 131.053 71.446 131.145 71.446C131.215 71.446 131.271 71.4425 131.316 71.4354C131.36 71.4265 131.396 71.4194 131.422 71.4141L131.465 71.9787C131.417 71.9947 131.352 72.0107 131.271 72.0266C131.191 72.0444 131.092 72.0533 130.975 72.0533C130.797 72.0533 130.63 72.0151 130.474 71.9387C130.318 71.8624 130.198 71.7461 130.115 71.5898C130.031 71.4336 130.009 71.2365 130.048 70.9986L130.719 66.929ZM133.446 69.5391L133.042 72H132.413L133.319 66.5455H133.947L133.617 68.5483H133.67C133.798 68.3352 133.968 68.1665 134.182 68.0423C134.396 67.918 134.666 67.8558 134.991 67.8558C135.268 67.8558 135.502 67.9118 135.692 68.0236C135.883 68.1337 136.018 68.3033 136.097 68.5323C136.176 68.7596 136.188 69.049 136.131 69.4006L135.694 72H135.066L135.492 69.4432C135.545 69.1183 135.502 68.867 135.361 68.6895C135.223 68.5101 135.007 68.4205 134.714 68.4205C134.508 68.4205 134.317 68.464 134.139 68.551C133.963 68.638 133.814 68.7649 133.692 68.9318C133.571 69.0987 133.489 69.3011 133.446 69.5391ZM139.55 67.1314L139.646 66.5455H143.737L143.641 67.1314H141.926L141.116 72H140.456L141.265 67.1314H139.55ZM144.799 69.5391L144.394 72H143.766L144.671 66.5455H145.3L144.969 68.5483H145.023C145.151 68.3352 145.321 68.1665 145.534 68.0423C145.749 67.918 146.019 67.8558 146.344 67.8558C146.621 67.8558 146.854 67.9118 147.044 68.0236C147.236 68.1337 147.371 68.3033 147.449 68.5323C147.529 68.7596 147.54 69.049 147.484 69.4006L147.047 72H146.418L146.844 69.4432C146.898 69.1183 146.854 68.867 146.714 68.6895C146.575 68.5101 146.36 68.4205 146.067 68.4205C145.861 68.4205 145.669 68.464 145.491 68.551C145.316 68.638 145.167 68.7649 145.044 68.9318C144.923 69.0987 144.842 69.3011 144.799 69.5391ZM148.197 72L148.879 67.9091H149.486L149.379 68.527H149.422C149.528 68.3246 149.691 68.1603 149.909 68.0343C150.128 67.9082 150.359 67.8452 150.604 67.8452C150.652 67.8452 150.71 67.8461 150.778 67.8478C150.845 67.8478 150.897 67.8505 150.935 67.8558L150.828 68.495C150.807 68.4897 150.759 68.4817 150.684 68.4711C150.61 68.4586 150.53 68.4524 150.445 68.4524C150.246 68.4524 150.062 68.4941 149.893 68.5776C149.725 68.6593 149.584 68.7729 149.47 68.9185C149.356 69.0623 149.283 69.2266 149.251 69.4112L148.825 72H148.197ZM152.566 72.0852C152.19 72.0852 151.874 71.9956 151.621 71.8162C151.367 71.6369 151.187 71.3857 151.083 71.0625C150.98 70.7393 150.963 70.3629 151.032 69.9332C151.099 69.5142 151.233 69.1493 151.434 68.8386C151.637 68.5261 151.888 68.2846 152.188 68.1142C152.49 67.9419 152.822 67.8558 153.184 67.8558C153.56 67.8558 153.875 67.9464 154.127 68.1275C154.381 68.3068 154.56 68.5589 154.665 68.8839C154.77 69.207 154.787 69.5852 154.718 70.0185C154.651 70.4339 154.515 70.7971 154.311 71.1078C154.108 71.4167 153.857 71.6573 153.557 71.8295C153.258 72 152.928 72.0852 152.566 72.0852ZM152.577 71.5206C152.864 71.5206 153.114 71.4469 153.325 71.2995C153.538 71.1522 153.71 70.9577 153.842 70.7163C153.975 70.4748 154.065 70.2138 154.111 69.9332C154.153 69.6669 154.152 69.4192 154.105 69.1902C154.059 68.9593 153.961 68.7738 153.81 68.6335C153.659 68.4915 153.447 68.4205 153.173 68.4205C152.886 68.4205 152.634 68.495 152.42 68.6442C152.206 68.7933 152.034 68.9895 151.903 69.2328C151.771 69.476 151.684 69.7379 151.639 70.0185C151.597 70.2848 151.597 70.5325 151.642 70.7615C151.688 70.9888 151.787 71.1726 151.937 71.3129C152.09 71.4513 152.303 71.5206 152.577 71.5206ZM158.208 70.3274L158.612 67.9091H159.241L158.559 72H157.931L158.048 71.3075H158.005C157.877 71.5153 157.699 71.6919 157.47 71.8375C157.241 71.9814 156.972 72.0533 156.663 72.0533C156.407 72.0533 156.189 71.9973 156.008 71.8855C155.828 71.7718 155.701 71.6014 155.624 71.3741C155.55 71.1451 155.541 70.8565 155.598 70.5085L156.034 67.9091H156.663L156.237 70.4659C156.189 70.7642 156.234 71.0021 156.373 71.1797C156.511 71.3572 156.711 71.446 156.972 71.446C157.128 71.446 157.293 71.4061 157.467 71.3262C157.643 71.2463 157.799 71.1238 157.936 70.9586C158.075 70.7935 158.165 70.5831 158.208 70.3274ZM161.106 73.6193C160.801 73.6193 160.545 73.5803 160.339 73.5021C160.133 73.4258 159.968 73.3246 159.844 73.1985C159.719 73.0742 159.625 72.9411 159.561 72.799L160.126 72.4474C160.169 72.522 160.224 72.6072 160.291 72.7031C160.359 72.8008 160.461 72.8851 160.597 72.9561C160.736 73.0289 160.93 73.0653 161.181 73.0653C161.509 73.0653 161.797 72.9854 162.044 72.8256C162.29 72.6658 162.443 72.4155 162.502 72.0746L162.629 71.2436H162.576C162.519 71.3182 162.44 71.4105 162.339 71.5206C162.238 71.6289 162.102 71.7257 161.932 71.8109C161.761 71.8944 161.543 71.9361 161.277 71.9361C160.944 71.9361 160.66 71.858 160.424 71.7017C160.188 71.5455 160.019 71.3182 159.916 71.0199C159.814 70.7216 159.799 70.3594 159.87 69.9332C159.94 69.5142 160.073 69.1493 160.27 68.8386C160.469 68.5261 160.714 68.2846 161.005 68.1142C161.296 67.9419 161.614 67.8558 161.958 67.8558C162.225 67.8558 162.429 67.9002 162.571 67.989C162.715 68.076 162.819 68.1754 162.885 68.2873C162.951 68.3974 163.001 68.4879 163.034 68.5589H163.098L163.205 67.9091H163.812L163.12 72.1172C163.061 72.4688 162.934 72.7546 162.739 72.9748C162.543 73.1967 162.304 73.3592 162.02 73.4622C161.736 73.5669 161.431 73.6193 161.106 73.6193ZM161.436 71.3714C161.687 71.3714 161.91 71.3137 162.105 71.1983C162.302 71.0829 162.465 70.9169 162.595 70.7003C162.724 70.4837 162.814 70.2244 162.864 69.9226C162.914 69.6278 162.91 69.3677 162.853 69.1422C162.796 68.9167 162.689 68.7401 162.531 68.6122C162.375 68.4844 162.17 68.4205 161.916 68.4205C161.648 68.4205 161.416 68.4879 161.221 68.6229C161.027 68.7578 160.87 68.9389 160.749 69.1662C160.628 69.3935 160.545 69.6456 160.499 69.9226C160.453 70.2067 160.454 70.4579 160.504 70.6763C160.554 70.8929 160.655 71.0634 160.808 71.1877C160.962 71.3102 161.172 71.3714 161.436 71.3714ZM165.314 69.5391L164.909 72H164.281L165.186 66.5455H165.815L165.485 68.5483H165.538C165.666 68.3352 165.836 68.1665 166.049 68.0423C166.264 67.918 166.534 67.8558 166.859 67.8558C167.136 67.8558 167.369 67.9118 167.559 68.0236C167.751 68.1337 167.886 68.3033 167.964 68.5323C168.044 68.7596 168.056 69.049 167.999 69.4006L167.562 72H166.933L167.36 69.4432C167.413 69.1183 167.369 68.867 167.229 68.6895C167.091 68.5101 166.875 68.4205 166.582 68.4205C166.376 68.4205 166.184 68.464 166.007 68.551C165.831 68.638 165.682 68.7649 165.559 68.9318C165.438 69.0987 165.357 69.3011 165.314 69.5391ZM172.473 66.5455L171.567 72H170.907L171.812 66.5455H172.473ZM173.84 69.5391L173.435 72H172.806L173.488 67.9091H174.095L173.989 68.5483H174.042C174.17 68.3406 174.343 68.1737 174.561 68.0476C174.78 67.9197 175.043 67.8558 175.352 67.8558C175.626 67.8558 175.857 67.9126 176.045 68.0263C176.235 68.1381 176.369 68.3086 176.447 68.5376C176.527 68.7649 176.538 69.0526 176.482 69.4006L176.045 72H175.416L175.842 69.4432C175.896 69.1236 175.854 68.8732 175.717 68.6921C175.582 68.511 175.368 68.4205 175.075 68.4205C174.873 68.4205 174.686 68.464 174.513 68.551C174.343 68.638 174.198 68.7649 174.079 68.9318C173.962 69.0987 173.882 69.3011 173.84 69.5391ZM178.227 69.5391L177.822 72H177.193L177.875 67.9091H178.482L178.376 68.5483H178.429C178.557 68.3406 178.73 68.1737 178.949 68.0476C179.167 67.9197 179.431 67.8558 179.74 67.8558C180.013 67.8558 180.244 67.9126 180.432 68.0263C180.622 68.1381 180.756 68.3086 180.834 68.5376C180.914 68.7649 180.926 69.0526 180.869 69.4006L180.432 72H179.803L180.23 69.4432C180.283 69.1236 180.241 68.8732 180.104 68.6921C179.969 68.511 179.756 68.4205 179.463 68.4205C179.26 68.4205 179.073 68.464 178.901 68.551C178.73 68.638 178.585 68.7649 178.466 68.9318C178.349 69.0987 178.269 69.3011 178.227 69.5391ZM183.269 72.0852C182.893 72.0852 182.578 71.9956 182.324 71.8162C182.07 71.6369 181.89 71.3857 181.786 71.0625C181.683 70.7393 181.666 70.3629 181.735 69.9332C181.803 69.5142 181.937 69.1493 182.137 68.8386C182.34 68.5261 182.591 68.2846 182.891 68.1142C183.193 67.9419 183.525 67.8558 183.887 67.8558C184.263 67.8558 184.578 67.9464 184.83 68.1275C185.084 68.3068 185.263 68.5589 185.368 68.8839C185.473 69.207 185.49 69.5852 185.421 70.0185C185.354 70.4339 185.218 70.7971 185.014 71.1078C184.811 71.4167 184.56 71.6573 184.26 71.8295C183.962 72 183.631 72.0852 183.269 72.0852ZM183.28 71.5206C183.567 71.5206 183.817 71.4469 184.028 71.2995C184.241 71.1522 184.414 70.9577 184.545 70.7163C184.678 70.4748 184.768 70.2138 184.814 69.9332C184.857 69.6669 184.855 69.4192 184.809 69.1902C184.762 68.9593 184.664 68.7738 184.513 68.6335C184.362 68.4915 184.15 68.4205 183.876 68.4205C183.589 68.4205 183.338 68.495 183.123 68.6442C182.91 68.7933 182.737 68.9895 182.606 69.2328C182.475 69.476 182.387 69.7379 182.342 70.0185C182.3 70.2848 182.301 70.5325 182.345 70.7615C182.391 70.9888 182.49 71.1726 182.641 71.3129C182.793 71.4513 183.006 71.5206 183.28 71.5206ZM189.936 67.9091L187.742 72H187.102L186.271 67.9091H186.927L187.513 71.169H187.555L189.228 67.9091H189.936ZM191.153 72.0959C190.893 72.0959 190.666 72.0471 190.471 71.9494C190.276 71.85 190.131 71.707 190.037 71.5206C189.943 71.3324 189.917 71.1051 189.959 70.8388C190 70.6044 190.079 70.4144 190.197 70.2688C190.314 70.1214 190.456 70.006 190.623 69.9226C190.791 69.8374 190.972 69.7743 191.166 69.7335C191.361 69.6909 191.556 69.658 191.749 69.6349C192.001 69.603 192.206 69.5781 192.364 69.5604C192.523 69.5426 192.641 69.5133 192.721 69.4725C192.801 69.4316 192.85 69.3615 192.868 69.2621V69.2408C192.91 68.9798 192.876 68.7765 192.764 68.6309C192.652 68.4835 192.452 68.4098 192.165 68.4098C191.866 68.4098 191.617 68.4755 191.416 68.6069C191.216 68.7383 191.067 68.8786 190.972 69.0277L190.418 68.8146C190.563 68.5661 190.737 68.3725 190.94 68.234C191.142 68.0937 191.354 67.9961 191.576 67.9411C191.798 67.8842 192.012 67.8558 192.218 67.8558C192.349 67.8558 192.498 67.8718 192.663 67.9038C192.828 67.9339 192.982 67.997 193.126 68.0929C193.272 68.1887 193.381 68.3335 193.454 68.527C193.528 68.7205 193.539 68.9798 193.486 69.3047L193.038 72H192.41L192.506 71.446H192.474C192.417 71.5348 192.33 71.6298 192.213 71.731C192.097 71.8322 191.951 71.9183 191.773 71.9893C191.597 72.0604 191.391 72.0959 191.153 72.0959ZM191.334 71.5312C191.582 71.5312 191.8 71.4824 191.986 71.3848C192.175 71.2871 192.325 71.161 192.439 71.0066C192.554 70.8521 192.626 70.6896 192.655 70.5192L192.751 69.9439C192.719 69.9759 192.656 70.0051 192.562 70.0318C192.467 70.0566 192.361 70.0788 192.242 70.0984C192.125 70.1161 192.01 70.1321 191.898 70.1463C191.788 70.1587 191.7 70.1694 191.632 70.1783C191.465 70.1996 191.306 70.2342 191.155 70.2821C191.006 70.3283 190.88 70.3984 190.777 70.4925C190.676 70.5849 190.613 70.7109 190.588 70.8707C190.551 71.0891 190.603 71.2543 190.745 71.3661C190.887 71.4762 191.083 71.5312 191.334 71.5312ZM196.646 67.9091L196.561 68.4418H194.441L194.526 67.9091H196.646ZM195.304 66.929H195.933L195.283 70.8281C195.254 71.0057 195.259 71.1388 195.296 71.2276C195.335 71.3146 195.394 71.3732 195.472 71.4034C195.552 71.4318 195.638 71.446 195.73 71.446C195.8 71.446 195.856 71.4425 195.901 71.4354C195.945 71.4265 195.981 71.4194 196.007 71.4141L196.05 71.9787C196.002 71.9947 195.937 72.0107 195.855 72.0266C195.776 72.0444 195.677 72.0533 195.56 72.0533C195.382 72.0533 195.215 72.0151 195.059 71.9387C194.903 71.8624 194.783 71.7461 194.7 71.5898C194.616 71.4336 194.594 71.2365 194.633 70.9986L195.304 66.929ZM196.91 72L197.592 67.9091H198.221L197.539 72H196.91ZM198.098 67.2166C197.976 67.2166 197.87 67.1749 197.781 67.0914C197.694 67.008 197.651 66.9077 197.651 66.7905C197.651 66.6733 197.694 66.573 197.781 66.4895C197.87 66.4061 197.976 66.3643 198.098 66.3643C198.221 66.3643 198.325 66.4061 198.412 66.4895C198.501 66.573 198.545 66.6733 198.545 66.7905C198.545 66.9077 198.501 67.008 198.412 67.0914C198.325 67.1749 198.221 67.2166 198.098 67.2166ZM200.379 72.0852C200.002 72.0852 199.687 71.9956 199.433 71.8162C199.179 71.6369 199 71.3857 198.895 71.0625C198.792 70.7393 198.775 70.3629 198.844 69.9332C198.912 69.5142 199.046 69.1493 199.247 68.8386C199.449 68.5261 199.7 68.2846 200 68.1142C200.302 67.9419 200.634 67.8558 200.996 67.8558C201.373 67.8558 201.687 67.9464 201.939 68.1275C202.193 68.3068 202.372 68.5589 202.477 68.8839C202.582 69.207 202.6 69.5852 202.531 70.0185C202.463 70.4339 202.327 70.7971 202.123 71.1078C201.921 71.4167 201.669 71.6573 201.369 71.8295C201.071 72 200.741 72.0852 200.379 72.0852ZM200.389 71.5206C200.677 71.5206 200.926 71.4469 201.138 71.2995C201.351 71.1522 201.523 70.9577 201.654 70.7163C201.787 70.4748 201.877 70.2138 201.923 69.9332C201.966 69.6669 201.964 69.4192 201.918 69.1902C201.872 68.9593 201.773 68.7738 201.622 68.6335C201.471 68.4915 201.259 68.4205 200.986 68.4205C200.698 68.4205 200.447 68.495 200.232 68.6442C200.019 68.7933 199.847 68.9895 199.715 69.2328C199.584 69.476 199.496 69.7379 199.452 70.0185C199.409 70.2848 199.41 70.5325 199.454 70.7615C199.501 70.9888 199.599 71.1726 199.75 71.3129C199.903 71.4513 200.116 71.5206 200.389 71.5206ZM204.198 69.5391L203.794 72H203.165L203.847 67.9091H204.454L204.348 68.5483H204.401C204.529 68.3406 204.702 68.1737 204.92 68.0476C205.139 67.9197 205.402 67.8558 205.711 67.8558C205.985 67.8558 206.215 67.9126 206.404 68.0263C206.594 68.1381 206.728 68.3086 206.806 68.5376C206.886 68.7649 206.897 69.0526 206.84 69.4006L206.404 72H205.775L206.201 69.4432C206.255 69.1236 206.213 68.8732 206.076 68.6921C205.941 68.511 205.727 68.4205 205.434 68.4205C205.232 68.4205 205.044 68.464 204.872 68.551C204.702 68.638 204.557 68.7649 204.438 68.9318C204.321 69.0987 204.241 69.3011 204.198 69.5391Z" fill="white"/>
</g>
</g>
<g filter="url(#filter2_d_3_104)">
<path d="M33.2656 45.0469V40.5625C33.2656 39.9479 33.1458 39.3698 32.9062 38.8281C32.6771 38.276 32.3594 37.7969 31.9531 37.3906C31.5469 36.9844 31.0677 36.6667 30.5156 36.4375C29.974 36.1979 29.3958 36.0781 28.7812 36.0781C28.1667 36.0781 27.5833 36.1979 27.0312 36.4375C26.4896 36.6667 26.0156 36.9844 25.6094 37.3906C25.2031 37.7969 24.8802 38.276 24.6406 38.8281C24.4115 39.3698 24.2969 39.9479 24.2969 40.5625V45.0469H33.2656ZM37.75 54H33.2656V49.5156H24.2969V54H19.8281V40.5625C19.8281 39.3229 20.0625 38.1615 20.5312 37.0781C21 35.9844 21.6354 35.0312 22.4375 34.2188C23.25 33.4062 24.1979 32.7656 25.2812 32.2969C26.375 31.8281 27.5417 31.5938 28.7812 31.5938C30.0208 31.5938 31.1823 31.8281 32.2656 32.2969C33.3594 32.7656 34.3125 33.4062 35.125 34.2188C35.9375 35.0312 36.5781 35.9844 37.0469 37.0781C37.5156 38.1615 37.75 39.3229 37.75 40.5625V54ZM59.5938 42.7969C59.5938 43.8281 59.4583 44.8229 59.1875 45.7812C58.9271 46.7292 58.5521 47.6198 58.0625 48.4531C57.5729 49.276 56.9896 50.0312 56.3125 50.7188C55.6354 51.3958 54.8802 51.9792 54.0469 52.4688C53.2135 52.9583 52.3177 53.3385 51.3594 53.6094C50.4115 53.8698 49.4219 54 48.3906 54H41.6406V31.5938H48.3906C49.4219 31.5938 50.4115 31.7292 51.3594 32C52.3177 32.2604 53.2135 32.6354 54.0469 33.125C54.8802 33.6146 55.6354 34.2031 56.3125 34.8906C56.9896 35.5677 57.5729 36.3229 58.0625 37.1562C58.5521 37.9792 58.9271 38.8698 59.1875 39.8281C59.4583 40.776 59.5938 41.7656 59.5938 42.7969ZM55.1094 42.7969C55.1094 41.8698 54.9323 41 54.5781 40.1875C54.2344 39.375 53.7552 38.6667 53.1406 38.0625C52.5365 37.4479 51.8229 36.9635 51 36.6094C50.1875 36.2552 49.3177 36.0781 48.3906 36.0781H46.1562V49.5156H48.3906C49.3177 49.5156 50.1875 49.3438 51 49C51.8229 48.6458 52.5365 48.1667 53.1406 47.5625C53.7552 46.9479 54.2344 46.2344 54.5781 45.4219C54.9323 44.599 55.1094 43.724 55.1094 42.7969ZM75.7656 45.0469V40.5625C75.7656 39.9479 75.6458 39.3698 75.4062 38.8281C75.1771 38.276 74.8594 37.7969 74.4531 37.3906C74.0469 36.9844 73.5677 36.6667 73.0156 36.4375C72.474 36.1979 71.8958 36.0781 71.2812 36.0781C70.6667 36.0781 70.0833 36.1979 69.5312 36.4375C68.9896 36.6667 68.5156 36.9844 68.1094 37.3906C67.7031 37.7969 67.3802 38.276 67.1406 38.8281C66.9115 39.3698 66.7969 39.9479 66.7969 40.5625V45.0469H75.7656ZM80.25 54H75.7656V49.5156H66.7969V54H62.3281V40.5625C62.3281 39.3229 62.5625 38.1615 63.0312 37.0781C63.5 35.9844 64.1354 35.0312 64.9375 34.2188C65.75 33.4062 66.6979 32.7656 67.7812 32.2969C68.875 31.8281 70.0417 31.5938 71.2812 31.5938C72.5208 31.5938 73.6823 31.8281 74.7656 32.2969C75.8594 32.7656 76.8125 33.4062 77.625 34.2188C78.4375 35.0312 79.0781 35.9844 79.5469 37.0781C80.0156 38.1615 80.25 39.3229 80.25 40.5625V54ZM88.625 36.0781V45.0469H93.1094C93.724 45.0469 94.3021 44.9323 94.8438 44.7031C95.3854 44.4635 95.8594 44.1406 96.2656 43.7344C96.6719 43.3281 96.9896 42.8542 97.2188 42.3125C97.4583 41.7604 97.5781 41.1771 97.5781 40.5625C97.5781 39.9479 97.4583 39.3698 97.2188 38.8281C96.9896 38.276 96.6719 37.7969 96.2656 37.3906C95.8594 36.9844 95.3854 36.6667 94.8438 36.4375C94.3021 36.1979 93.724 36.0781 93.1094 36.0781H88.625ZM88.625 54H84.1406V31.5938H93.1094C93.9323 31.5938 94.724 31.7031 95.4844 31.9219C96.2448 32.1302 96.9531 32.4323 97.6094 32.8281C98.276 33.2135 98.8802 33.6823 99.4219 34.2344C99.974 34.776 100.443 35.3802 100.828 36.0469C101.224 36.7135 101.526 37.4271 101.734 38.1875C101.953 38.9479 102.062 39.7396 102.062 40.5625C102.062 41.7917 101.828 42.9531 101.359 44.0469C100.891 45.1302 100.25 46.0781 99.4375 46.8906C98.625 47.7031 97.6719 48.3438 96.5781 48.8125C95.4948 49.2812 94.3385 49.5156 93.1094 49.5156H88.625V54ZM113.922 54H109.453V36.0781H102.719V31.5938H120.641V36.0781H113.922V54ZM135.516 45.0469V40.5625C135.516 39.9479 135.396 39.3698 135.156 38.8281C134.927 38.276 134.609 37.7969 134.203 37.3906C133.797 36.9844 133.318 36.6667 132.766 36.4375C132.224 36.1979 131.646 36.0781 131.031 36.0781C130.417 36.0781 129.833 36.1979 129.281 36.4375C128.74 36.6667 128.266 36.9844 127.859 37.3906C127.453 37.7969 127.13 38.276 126.891 38.8281C126.661 39.3698 126.547 39.9479 126.547 40.5625V45.0469H135.516ZM140 54H135.516V49.5156H126.547V54H122.078V40.5625C122.078 39.3229 122.312 38.1615 122.781 37.0781C123.25 35.9844 123.885 35.0312 124.688 34.2188C125.5 33.4062 126.448 32.7656 127.531 32.2969C128.625 31.8281 129.792 31.5938 131.031 31.5938C132.271 31.5938 133.432 31.8281 134.516 32.2969C135.609 32.7656 136.562 33.4062 137.375 34.2188C138.188 35.0312 138.828 35.9844 139.297 37.0781C139.766 38.1615 140 39.3229 140 40.5625V54ZM161.781 51.7031C160.74 52.599 159.573 53.2865 158.281 53.7656C156.99 54.2448 155.651 54.4844 154.266 54.4844C153.203 54.4844 152.177 54.3438 151.188 54.0625C150.208 53.7917 149.286 53.4062 148.422 52.9062C147.568 52.3958 146.786 51.7865 146.078 51.0781C145.37 50.3698 144.76 49.5885 144.25 48.7344C143.75 47.8698 143.359 46.9479 143.078 45.9688C142.807 44.9792 142.672 43.9531 142.672 42.8906C142.672 41.8281 142.807 40.8021 143.078 39.8125C143.359 38.8229 143.75 37.901 144.25 37.0469C144.76 36.1823 145.37 35.3958 146.078 34.6875C146.786 33.9792 147.568 33.375 148.422 32.875C149.286 32.3646 150.208 31.974 151.188 31.7031C152.177 31.4219 153.203 31.2812 154.266 31.2812C155.651 31.2812 156.99 31.5208 158.281 32C159.573 32.4688 160.74 33.1562 161.781 34.0625L159.406 37.9688C158.75 37.2604 157.974 36.7188 157.078 36.3438C156.182 35.9583 155.245 35.7656 154.266 35.7656C153.276 35.7656 152.349 35.9531 151.484 36.3281C150.62 36.7031 149.865 37.2135 149.219 37.8594C148.573 38.4948 148.062 39.25 147.688 40.125C147.312 40.9896 147.125 41.9115 147.125 42.8906C147.125 43.8698 147.312 44.7917 147.688 45.6562C148.062 46.5104 148.573 47.2604 149.219 47.9062C149.865 48.5521 150.62 49.0625 151.484 49.4375C152.349 49.8125 153.276 50 154.266 50C155.245 50 156.182 49.8125 157.078 49.4375C157.974 49.0521 158.75 48.5052 159.406 47.7969L161.781 51.7031ZM185.688 42.8906C185.688 43.9531 185.547 44.9792 185.266 45.9688C184.995 46.9479 184.609 47.8698 184.109 48.7344C183.609 49.5885 183.005 50.3698 182.297 51.0781C181.589 51.7865 180.807 52.3958 179.953 52.9062C179.099 53.4062 178.177 53.7917 177.188 54.0625C176.198 54.3438 175.172 54.4844 174.109 54.4844C173.047 54.4844 172.021 54.3438 171.031 54.0625C170.052 53.7917 169.13 53.4062 168.266 52.9062C167.411 52.3958 166.63 51.7865 165.922 51.0781C165.214 50.3698 164.604 49.5885 164.094 48.7344C163.594 47.8698 163.203 46.9479 162.922 45.9688C162.651 44.9792 162.516 43.9531 162.516 42.8906C162.516 41.8281 162.651 40.8021 162.922 39.8125C163.203 38.8229 163.594 37.901 164.094 37.0469C164.604 36.1927 165.214 35.4115 165.922 34.7031C166.63 33.9948 167.411 33.3906 168.266 32.8906C169.13 32.3906 170.052 32.0052 171.031 31.7344C172.021 31.4531 173.047 31.3125 174.109 31.3125C175.172 31.3125 176.198 31.4531 177.188 31.7344C178.177 32.0052 179.099 32.3906 179.953 32.8906C180.807 33.3906 181.589 33.9948 182.297 34.7031C183.005 35.4115 183.609 36.1927 184.109 37.0469C184.609 37.901 184.995 38.8229 185.266 39.8125C185.547 40.8021 185.688 41.8281 185.688 42.8906ZM181.234 42.8906C181.234 41.9115 181.047 40.9896 180.672 40.125C180.297 39.25 179.786 38.4948 179.141 37.8594C178.505 37.2135 177.75 36.7031 176.875 36.3281C176.01 35.9531 175.089 35.7656 174.109 35.7656C173.12 35.7656 172.193 35.9531 171.328 36.3281C170.464 36.7031 169.708 37.2135 169.062 37.8594C168.417 38.4948 167.906 39.25 167.531 40.125C167.156 40.9896 166.969 41.9115 166.969 42.8906C166.969 43.8698 167.156 44.7917 167.531 45.6562C167.906 46.5104 168.417 47.2604 169.062 47.9062C169.708 48.5521 170.464 49.0625 171.328 49.4375C172.193 49.8125 173.12 50 174.109 50C175.089 50 176.01 49.8125 176.875 49.4375C177.75 49.0625 178.505 48.5521 179.141 47.9062C179.786 47.2604 180.297 46.5104 180.672 45.6562C181.047 44.7917 181.234 43.8698 181.234 42.8906ZM210.875 54H206.406V38C206.406 37.6875 206.344 37.3958 206.219 37.125C206.104 36.8542 205.943 36.6198 205.734 36.4219C205.536 36.2135 205.302 36.0521 205.031 35.9375C204.76 35.8229 204.469 35.7656 204.156 35.7656C203.844 35.7656 203.552 35.8229 203.281 35.9375C203.01 36.0521 202.771 36.2135 202.562 36.4219C202.365 36.6198 202.208 36.8542 202.094 37.125C201.979 37.3958 201.922 37.6875 201.922 38V54H197.438V38C197.438 37.6875 197.38 37.3958 197.266 37.125C197.151 36.8542 196.99 36.6198 196.781 36.4219C196.583 36.2135 196.349 36.0521 196.078 35.9375C195.807 35.8229 195.516 35.7656 195.203 35.7656C194.891 35.7656 194.599 35.8229 194.328 35.9375C194.057 36.0521 193.818 36.2135 193.609 36.4219C193.411 36.6198 193.255 36.8542 193.141 37.125C193.026 37.3958 192.969 37.6875 192.969 38V54H188.484V38C188.484 37.0729 188.656 36.2031 189 35.3906C189.354 34.5677 189.833 33.8542 190.438 33.25C191.052 32.6354 191.766 32.1562 192.578 31.8125C193.401 31.4583 194.276 31.2812 195.203 31.2812C196.036 31.2812 196.839 31.4323 197.609 31.7344C198.38 32.026 199.073 32.4531 199.688 33.0156C200.302 32.4531 200.99 32.026 201.75 31.7344C202.521 31.4323 203.323 31.2812 204.156 31.2812C205.083 31.2812 205.953 31.4583 206.766 31.8125C207.589 32.1562 208.302 32.6354 208.906 33.25C209.521 33.8542 210 34.5677 210.344 35.3906C210.698 36.2031 210.875 37.0729 210.875 38V54Z" fill="#F3F3F3"/>
</g>
<defs>
<filter id="filter0_d_3_104" x="62" y="62" width="153" height="23" filterUnits="userSpaceOnUse" color-interpolation-filters="sRGB">
<feFlood flood-opacity="0" result="BackgroundImageFix"/>
<feColorMatrix in="SourceAlpha" type="matrix" values="0 0 0 0 0 0 0 0 0 0 0 0 0 0 0 0 0 0 127 0" result="hardAlpha"/>
<feOffset dx="1" dy="1"/>
<feGaussianBlur stdDeviation="0.5"/>
<feComposite in2="hardAlpha" operator="out"/>
<feColorMatrix type="matrix" values="0 0 0 0 0 0 0 0 0 0 0 0 0 0 0 0 0 0 0.6 0"/>
<feBlend mode="normal" in2="BackgroundImageFix" result="effect1_dropShadow_3_104"/>
<feBlend mode="normal" in="SourceGraphic" in2="effect1_dropShadow_3_104" result="shape"/>
</filter>
<filter id="filter1_d_3_104" x="83.7547" y="66.1143" width="124.921" height="9.25497" filterUnits="userSpaceOnUse" color-interpolation-filters="sRGB">
<feFlood flood-opacity="0" result="BackgroundImageFix"/>
<feColorMatrix in="SourceAlpha" type="matrix" values="0 0 0 0 0 0 0 0 0 0 0 0 0 0 0 0 0 0 127 0" result="hardAlpha"/>
<feOffset dx="0.75" dy="0.75"/>
<feGaussianBlur stdDeviation="0.5"/>
<feComposite in2="hardAlpha" operator="out"/>
<feColorMatrix type="matrix" values="0 0 0 0 0 0 0 0 0 0 0 0 0 0 0 0 0 0 0.8 0"/>
<feBlend mode="normal" in2="BackgroundImageFix" result="effect1_dropShadow_3_104"/>
<feBlend mode="normal" in="SourceGraphic" in2="effect1_dropShadow_3_104" result="shape"/>
</filter>
<filter id="filter2_d_3_104" x="19.8281" y="31.2812" width="193.047" height="25.2031" filterUnits="userSpaceOnUse" color-interpolation-filters="sRGB">
<feFlood flood-opacity="0" result="BackgroundImageFix"/>
<feColorMatrix in="SourceAlpha" type="matrix" values="0 0 0 0 0 0 0 0 0 0 0 0 0 0 0 0 0 0 127 0" result="hardAlpha"/>
<feOffset dx="1" dy="1"/>
<feGaussianBlur stdDeviation="0.5"/>
<feComposite in2="hardAlpha" operator="out"/>
<feColorMatrix type="matrix" values="0 0 0 0 0 0 0 0 0 0 0 0 0 0 0 0 0 0 0.6 0"/>
<feBlend mode="normal" in2="BackgroundImageFix" result="effect1_dropShadow_3_104"/>
<feBlend mode="normal" in="SourceGraphic" in2="effect1_dropShadow_3_104" result="shape"/>
</filter>
</defs>
</svg>
