<svg width="192" height="24" viewBox="0 0 192 24" fill="none" xmlns="http://www.w3.org/2000/svg">
<path d="M14.2656 14.0469V9.5625C14.2656 8.94792 14.1458 8.36979 13.9062 7.82812C13.6771 7.27604 13.3594 6.79688 12.9531 6.39062C12.5469 5.98438 12.0677 5.66667 11.5156 5.4375C10.974 5.19792 10.3958 5.07812 9.78125 5.07812C9.16667 5.07812 8.58333 5.19792 8.03125 5.4375C7.48958 5.66667 7.01562 5.98438 6.60938 6.39062C6.20312 6.79688 5.88021 7.27604 5.64062 7.82812C5.41146 8.36979 5.29688 8.94792 5.29688 9.5625V14.0469H14.2656ZM18.75 23H14.2656V18.5156H5.29688V23H0.828125V9.5625C0.828125 8.32292 1.0625 7.16146 1.53125 6.07812C2 4.98438 2.63542 4.03125 3.4375 3.21875C4.25 2.40625 5.19792 1.76562 6.28125 1.29688C7.375 0.828125 8.54167 0.59375 9.78125 0.59375C11.0208 0.59375 12.1823 0.828125 13.2656 1.29688C14.3594 1.76562 15.3125 2.40625 16.125 3.21875C16.9375 4.03125 17.5781 4.98438 18.0469 6.07812C18.5156 7.16146 18.75 8.32292 18.75 9.5625V23ZM40.5938 11.7969C40.5938 12.8281 40.4583 13.8229 40.1875 14.7812C39.9271 15.7292 39.5521 16.6198 39.0625 17.4531C38.5729 18.276 37.9896 19.0312 37.3125 19.7188C36.6354 20.3958 35.8802 20.9792 35.0469 21.4688C34.2135 21.9583 33.3177 22.3385 32.3594 22.6094C31.4115 22.8698 30.4219 23 29.3906 23H22.6406V0.59375H29.3906C30.4219 0.59375 31.4115 0.729167 32.3594 1C33.3177 1.26042 34.2135 1.63542 35.0469 2.125C35.8802 2.61458 36.6354 3.20312 37.3125 3.89062C37.9896 4.56771 38.5729 5.32292 39.0625 6.15625C39.5521 6.97917 39.9271 7.86979 40.1875 8.82812C40.4583 9.77604 40.5938 10.7656 40.5938 11.7969ZM36.1094 11.7969C36.1094 10.8698 35.9323 10 35.5781 9.1875C35.2344 8.375 34.7552 7.66667 34.1406 7.0625C33.5365 6.44792 32.8229 5.96354 32 5.60938C31.1875 5.25521 30.3177 5.07812 29.3906 5.07812H27.1562V18.5156H29.3906C30.3177 18.5156 31.1875 18.3438 32 18C32.8229 17.6458 33.5365 17.1667 34.1406 16.5625C34.7552 15.9479 35.2344 15.2344 35.5781 14.4219C35.9323 13.599 36.1094 12.724 36.1094 11.7969ZM56.7656 14.0469V9.5625C56.7656 8.94792 56.6458 8.36979 56.4062 7.82812C56.1771 7.27604 55.8594 6.79688 55.4531 6.39062C55.0469 5.98438 54.5677 5.66667 54.0156 5.4375C53.474 5.19792 52.8958 5.07812 52.2812 5.07812C51.6667 5.07812 51.0833 5.19792 50.5312 5.4375C49.9896 5.66667 49.5156 5.98438 49.1094 6.39062C48.7031 6.79688 48.3802 7.27604 48.1406 7.82812C47.9115 8.36979 47.7969 8.94792 47.7969 9.5625V14.0469H56.7656ZM61.25 23H56.7656V18.5156H47.7969V23H43.3281V9.5625C43.3281 8.32292 43.5625 7.16146 44.0312 6.07812C44.5 4.98438 45.1354 4.03125 45.9375 3.21875C46.75 2.40625 47.6979 1.76562 48.7812 1.29688C49.875 0.828125 51.0417 0.59375 52.2812 0.59375C53.5208 0.59375 54.6823 0.828125 55.7656 1.29688C56.8594 1.76562 57.8125 2.40625 58.625 3.21875C59.4375 4.03125 60.0781 4.98438 60.5469 6.07812C61.0156 7.16146 61.25 8.32292 61.25 9.5625V23ZM69.625 5.07812V14.0469H74.1094C74.724 14.0469 75.3021 13.9323 75.8438 13.7031C76.3854 13.4635 76.8594 13.1406 77.2656 12.7344C77.6719 12.3281 77.9896 11.8542 78.2188 11.3125C78.4583 10.7604 78.5781 10.1771 78.5781 9.5625C78.5781 8.94792 78.4583 8.36979 78.2188 7.82812C77.9896 7.27604 77.6719 6.79688 77.2656 6.39062C76.8594 5.98438 76.3854 5.66667 75.8438 5.4375C75.3021 5.19792 74.724 5.07812 74.1094 5.07812H69.625ZM69.625 23H65.1406V0.59375H74.1094C74.9323 0.59375 75.724 0.703125 76.4844 0.921875C77.2448 1.13021 77.9531 1.43229 78.6094 1.82812C79.276 2.21354 79.8802 2.68229 80.4219 3.23438C80.974 3.77604 81.4427 4.38021 81.8281 5.04688C82.224 5.71354 82.526 6.42708 82.7344 7.1875C82.9531 7.94792 83.0625 8.73958 83.0625 9.5625C83.0625 10.7917 82.8281 11.9531 82.3594 13.0469C81.8906 14.1302 81.25 15.0781 80.4375 15.8906C79.625 16.7031 78.6719 17.3438 77.5781 17.8125C76.4948 18.2812 75.3385 18.5156 74.1094 18.5156H69.625V23ZM94.9219 23H90.4531V5.07812H83.7188V0.59375H101.641V5.07812H94.9219V23ZM116.516 14.0469V9.5625C116.516 8.94792 116.396 8.36979 116.156 7.82812C115.927 7.27604 115.609 6.79688 115.203 6.39062C114.797 5.98438 114.318 5.66667 113.766 5.4375C113.224 5.19792 112.646 5.07812 112.031 5.07812C111.417 5.07812 110.833 5.19792 110.281 5.4375C109.74 5.66667 109.266 5.98438 108.859 6.39062C108.453 6.79688 108.13 7.27604 107.891 7.82812C107.661 8.36979 107.547 8.94792 107.547 9.5625V14.0469H116.516ZM121 23H116.516V18.5156H107.547V23H103.078V9.5625C103.078 8.32292 103.312 7.16146 103.781 6.07812C104.25 4.98438 104.885 4.03125 105.688 3.21875C106.5 2.40625 107.448 1.76562 108.531 1.29688C109.625 0.828125 110.792 0.59375 112.031 0.59375C113.271 0.59375 114.432 0.828125 115.516 1.29688C116.609 1.76562 117.562 2.40625 118.375 3.21875C119.188 4.03125 119.828 4.98438 120.297 6.07812C120.766 7.16146 121 8.32292 121 9.5625V23ZM142.781 20.7031C141.74 21.599 140.573 22.2865 139.281 22.7656C137.99 23.2448 136.651 23.4844 135.266 23.4844C134.203 23.4844 133.177 23.3438 132.188 23.0625C131.208 22.7917 130.286 22.4062 129.422 21.9062C128.568 21.3958 127.786 20.7865 127.078 20.0781C126.37 19.3698 125.76 18.5885 125.25 17.7344C124.75 16.8698 124.359 15.9479 124.078 14.9688C123.807 13.9792 123.672 12.9531 123.672 11.8906C123.672 10.8281 123.807 9.80208 124.078 8.8125C124.359 7.82292 124.75 6.90104 125.25 6.04688C125.76 5.18229 126.37 4.39583 127.078 3.6875C127.786 2.97917 128.568 2.375 129.422 1.875C130.286 1.36458 131.208 0.973958 132.188 0.703125C133.177 0.421875 134.203 0.28125 135.266 0.28125C136.651 0.28125 137.99 0.520833 139.281 1C140.573 1.46875 141.74 2.15625 142.781 3.0625L140.406 6.96875C139.75 6.26042 138.974 5.71875 138.078 5.34375C137.182 4.95833 136.245 4.76562 135.266 4.76562C134.276 4.76562 133.349 4.95312 132.484 5.32812C131.62 5.70312 130.865 6.21354 130.219 6.85938C129.573 7.49479 129.062 8.25 128.688 9.125C128.312 9.98958 128.125 10.9115 128.125 11.8906C128.125 12.8698 128.312 13.7917 128.688 14.6562C129.062 15.5104 129.573 16.2604 130.219 16.9062C130.865 17.5521 131.62 18.0625 132.484 18.4375C133.349 18.8125 134.276 19 135.266 19C136.245 19 137.182 18.8125 138.078 18.4375C138.974 18.0521 139.75 17.5052 140.406 16.7969L142.781 20.7031ZM166.688 11.8906C166.688 12.9531 166.547 13.9792 166.266 14.9688C165.995 15.9479 165.609 16.8698 165.109 17.7344C164.609 18.5885 164.005 19.3698 163.297 20.0781C162.589 20.7865 161.807 21.3958 160.953 21.9062C160.099 22.4062 159.177 22.7917 158.188 23.0625C157.198 23.3438 156.172 23.4844 155.109 23.4844C154.047 23.4844 153.021 23.3438 152.031 23.0625C151.052 22.7917 150.13 22.4062 149.266 21.9062C148.411 21.3958 147.63 20.7865 146.922 20.0781C146.214 19.3698 145.604 18.5885 145.094 17.7344C144.594 16.8698 144.203 15.9479 143.922 14.9688C143.651 13.9792 143.516 12.9531 143.516 11.8906C143.516 10.8281 143.651 9.80208 143.922 8.8125C144.203 7.82292 144.594 6.90104 145.094 6.04688C145.604 5.19271 146.214 4.41146 146.922 3.70312C147.63 2.99479 148.411 2.39062 149.266 1.89062C150.13 1.39062 151.052 1.00521 152.031 0.734375C153.021 0.453125 154.047 0.3125 155.109 0.3125C156.172 0.3125 157.198 0.453125 158.188 0.734375C159.177 1.00521 160.099 1.39062 160.953 1.89062C161.807 2.39062 162.589 2.99479 163.297 3.70312C164.005 4.41146 164.609 5.19271 165.109 6.04688C165.609 6.90104 165.995 7.82292 166.266 8.8125C166.547 9.80208 166.688 10.8281 166.688 11.8906ZM162.234 11.8906C162.234 10.9115 162.047 9.98958 161.672 9.125C161.297 8.25 160.786 7.49479 160.141 6.85938C159.505 6.21354 158.75 5.70312 157.875 5.32812C157.01 4.95312 156.089 4.76562 155.109 4.76562C154.12 4.76562 153.193 4.95312 152.328 5.32812C151.464 5.70312 150.708 6.21354 150.062 6.85938C149.417 7.49479 148.906 8.25 148.531 9.125C148.156 9.98958 147.969 10.9115 147.969 11.8906C147.969 12.8698 148.156 13.7917 148.531 14.6562C148.906 15.5104 149.417 16.2604 150.062 16.9062C150.708 17.5521 151.464 18.0625 152.328 18.4375C153.193 18.8125 154.12 19 155.109 19C156.089 19 157.01 18.8125 157.875 18.4375C158.75 18.0625 159.505 17.5521 160.141 16.9062C160.786 16.2604 161.297 15.5104 161.672 14.6562C162.047 13.7917 162.234 12.8698 162.234 11.8906ZM191.875 23H187.406V7C187.406 6.6875 187.344 6.39583 187.219 6.125C187.104 5.85417 186.943 5.61979 186.734 5.42188C186.536 5.21354 186.302 5.05208 186.031 4.9375C185.76 4.82292 185.469 4.76562 185.156 4.76562C184.844 4.76562 184.552 4.82292 184.281 4.9375C184.01 5.05208 183.771 5.21354 183.562 5.42188C183.365 5.61979 183.208 5.85417 183.094 6.125C182.979 6.39583 182.922 6.6875 182.922 7V23H178.438V7C178.438 6.6875 178.38 6.39583 178.266 6.125C178.151 5.85417 177.99 5.61979 177.781 5.42188C177.583 5.21354 177.349 5.05208 177.078 4.9375C176.807 4.82292 176.516 4.76562 176.203 4.76562C175.891 4.76562 175.599 4.82292 175.328 4.9375C175.057 5.05208 174.818 5.21354 174.609 5.42188C174.411 5.61979 174.255 5.85417 174.141 6.125C174.026 6.39583 173.969 6.6875 173.969 7V23H169.484V7C169.484 6.07292 169.656 5.20312 170 4.39062C170.354 3.56771 170.833 2.85417 171.438 2.25C172.052 1.63542 172.766 1.15625 173.578 0.8125C174.401 0.458333 175.276 0.28125 176.203 0.28125C177.036 0.28125 177.839 0.432292 178.609 0.734375C179.38 1.02604 180.073 1.45312 180.688 2.01562C181.302 1.45312 181.99 1.02604 182.75 0.734375C183.521 0.432292 184.323 0.28125 185.156 0.28125C186.083 0.28125 186.953 0.458333 187.766 0.8125C188.589 1.15625 189.302 1.63542 189.906 2.25C190.521 2.85417 191 3.56771 191.344 4.39062C191.698 5.20312 191.875 6.07292 191.875 7V23Z" fill="#F3F3F3"/>
</svg>
