<svg width="195" height="49" viewBox="0 0 195 49" fill="none" xmlns="http://www.w3.org/2000/svg">
<path d="M2.01136 41.1818L1.04545 47H0.340909L1.30682 41.1818H2.01136ZM6.25923 47.0909C5.8937 47.0909 5.58688 46.9991 5.33878 46.8153C5.09067 46.6297 4.91548 46.3684 4.81321 46.0312C4.71283 45.6922 4.70052 45.2917 4.77628 44.8295C4.85393 44.3712 4.99882 43.9735 5.21094 43.6364C5.42495 43.2992 5.68726 43.0388 5.99787 42.8551C6.30848 42.6714 6.64749 42.5795 7.01491 42.5795C7.29901 42.5795 7.51586 42.6269 7.66548 42.7216C7.817 42.8144 7.92685 42.9205 7.99503 43.0398C8.06321 43.1572 8.11529 43.2538 8.15128 43.3295H8.2081L8.56605 41.1818H9.23651L8.2706 47H7.62287L7.73651 46.3295H7.65696C7.59446 46.4091 7.50734 46.5095 7.3956 46.6307C7.28385 46.75 7.13613 46.857 6.95241 46.9517C6.7706 47.0445 6.53954 47.0909 6.25923 47.0909ZM6.42401 46.4886C6.69295 46.4886 6.93348 46.4186 7.1456 46.2784C7.35961 46.1364 7.53764 45.9403 7.67969 45.6903C7.82173 45.4384 7.92022 45.1477 7.97514 44.8182C8.03007 44.4924 8.02817 44.2074 7.96946 43.9631C7.91075 43.7169 7.79806 43.5256 7.63139 43.3892C7.46473 43.2509 7.24408 43.1818 6.96946 43.1818C6.68726 43.1818 6.442 43.2547 6.23366 43.4006C6.02533 43.5445 5.85582 43.7405 5.72514 43.9886C5.59446 44.2348 5.50355 44.5114 5.45241 44.8182C5.40128 45.1288 5.40033 45.411 5.44957 45.6648C5.49882 45.9167 5.60298 46.1174 5.76207 46.267C5.92306 46.4148 6.1437 46.4886 6.42401 46.4886ZM9.58594 47L10.3132 42.6364H10.9837L10.2564 47H9.58594ZM10.853 41.8977C10.7223 41.8977 10.6096 41.8532 10.5149 41.7642C10.4221 41.6752 10.3757 41.5682 10.3757 41.4432C10.3757 41.3182 10.4221 41.2112 10.5149 41.1222C10.6096 41.0331 10.7223 40.9886 10.853 40.9886C10.9837 40.9886 11.0954 41.0331 11.1882 41.1222C11.2829 41.2112 11.3303 41.3182 11.3303 41.4432C11.3303 41.5682 11.2829 41.6752 11.1882 41.7642C11.0954 41.8532 10.9837 41.8977 10.853 41.8977ZM13.1264 47.0909C12.7609 47.0909 12.4541 46.9991 12.206 46.8153C11.9579 46.6297 11.7827 46.3684 11.6804 46.0312C11.58 45.6922 11.5677 45.2917 11.6435 44.8295C11.7211 44.3712 11.866 43.9735 12.0781 43.6364C12.2921 43.2992 12.5545 43.0388 12.8651 42.8551C13.1757 42.6714 13.5147 42.5795 13.8821 42.5795C14.1662 42.5795 14.383 42.6269 14.5327 42.7216C14.6842 42.8144 14.794 42.9205 14.8622 43.0398C14.9304 43.1572 14.9825 43.2538 15.0185 43.3295H15.0753L15.4332 41.1818H16.1037L15.1378 47H14.4901L14.6037 46.3295H14.5241C14.4616 46.4091 14.3745 46.5095 14.2628 46.6307C14.151 46.75 14.0033 46.857 13.8196 46.9517C13.6378 47.0445 13.4067 47.0909 13.1264 47.0909ZM13.2912 46.4886C13.5601 46.4886 13.8007 46.4186 14.0128 46.2784C14.2268 46.1364 14.4048 45.9403 14.5469 45.6903C14.6889 45.4384 14.7874 45.1477 14.8423 44.8182C14.8973 44.4924 14.8954 44.2074 14.8366 43.9631C14.7779 43.7169 14.6652 43.5256 14.4986 43.3892C14.3319 43.2509 14.1113 43.1818 13.8366 43.1818C13.5545 43.1818 13.3092 43.2547 13.1009 43.4006C12.8925 43.5445 12.723 43.7405 12.5923 43.9886C12.4616 44.2348 12.3707 44.5114 12.3196 44.8182C12.2685 45.1288 12.2675 45.411 12.3168 45.6648C12.366 45.9167 12.4702 46.1174 12.6293 46.267C12.7902 46.4148 13.0109 46.4886 13.2912 46.4886ZM17.5554 44.375L17.1236 47H16.4531L17.1804 42.6364H17.8281L17.7145 43.3182H17.7713C17.9077 43.0966 18.0923 42.9186 18.3253 42.7841C18.5582 42.6477 18.8395 42.5795 19.169 42.5795C19.4607 42.5795 19.7069 42.6402 19.9077 42.7614C20.1103 42.8807 20.2533 43.0625 20.3366 43.3068C20.4219 43.5492 20.4342 43.8561 20.3736 44.2273L19.9077 47H19.2372L19.6918 44.2727C19.7486 43.9318 19.7041 43.6648 19.5582 43.4716C19.4143 43.2784 19.1861 43.1818 18.8736 43.1818C18.6577 43.1818 18.4579 43.2282 18.2741 43.321C18.0923 43.4138 17.938 43.5492 17.8111 43.7273C17.6861 43.9053 17.6009 44.1212 17.5554 44.375ZM22.6896 41.1818L22.6101 41.6932C22.5855 41.8485 22.5296 42.0142 22.4425 42.1903C22.3572 42.3646 22.2474 42.5341 22.1129 42.6989C21.9785 42.8617 21.826 43.0038 21.6555 43.125L21.3374 42.8295C21.4851 42.6591 21.6167 42.482 21.7322 42.2983C21.8497 42.1127 21.9264 41.9148 21.9624 41.7045L22.0533 41.1818H22.6896ZM25.3594 42.6364L25.2685 43.2045H23.0071L23.098 42.6364H25.3594ZM23.9276 41.5909H24.598L23.9048 45.75C23.8745 45.9394 23.8793 46.0814 23.919 46.1761C23.9607 46.2689 24.0232 46.3314 24.1065 46.3636C24.1918 46.3939 24.2836 46.4091 24.3821 46.4091C24.456 46.4091 24.5166 46.4053 24.5639 46.3977C24.6113 46.3883 24.6491 46.3807 24.6776 46.375L24.723 46.9773C24.6719 46.9943 24.6027 47.0114 24.5156 47.0284C24.4304 47.0473 24.3253 47.0568 24.2003 47.0568C24.0109 47.0568 23.8329 47.0161 23.6662 46.9347C23.4995 46.8532 23.3717 46.7292 23.2827 46.5625C23.1937 46.3958 23.17 46.1856 23.2116 45.9318L23.9276 41.5909ZM31.5497 43.6136L30.9134 43.7841C30.8906 43.6818 30.8509 43.5833 30.794 43.4886C30.7391 43.392 30.6539 43.3134 30.5384 43.2528C30.4247 43.1903 30.2694 43.1591 30.0724 43.1591C29.8054 43.1591 29.5734 43.2206 29.3764 43.3438C29.1795 43.465 29.0668 43.6193 29.0384 43.8068C29.0099 43.9716 29.0478 44.1032 29.152 44.2017C29.2562 44.3002 29.4304 44.3807 29.6747 44.4432L30.2997 44.6023C30.6747 44.6989 30.9418 44.8437 31.1009 45.0369C31.2618 45.2282 31.3168 45.4773 31.2656 45.7841C31.224 46.0341 31.1151 46.2576 30.9389 46.4545C30.7628 46.6515 30.5374 46.8068 30.2628 46.9205C29.9882 47.0341 29.6823 47.0909 29.3452 47.0909C28.8963 47.0909 28.5421 46.9943 28.2827 46.8011C28.0232 46.6061 27.8849 46.3239 27.8679 45.9545L28.5384 45.7955C28.5554 46.0284 28.6387 46.2045 28.7884 46.3239C28.9399 46.4413 29.152 46.5 29.4247 46.5C29.7372 46.5 29.9976 46.4337 30.206 46.3011C30.4143 46.1667 30.5327 46.0057 30.5611 45.8182C30.5895 45.6648 30.5592 45.5369 30.4702 45.4347C30.383 45.3324 30.2315 45.2557 30.0156 45.2045L29.3224 45.0341C28.9361 44.9375 28.6652 44.7898 28.5099 44.5909C28.3565 44.392 28.3054 44.142 28.3565 43.8409C28.3982 43.5947 28.5043 43.3769 28.6747 43.1875C28.8471 42.9981 29.063 42.8494 29.3224 42.7415C29.5838 42.6335 29.8679 42.5795 30.1747 42.5795C30.6065 42.5795 30.9295 42.6742 31.1435 42.8636C31.3575 43.0511 31.4929 43.3011 31.5497 43.6136ZM33.8885 47.0909C33.4699 47.0909 33.1243 46.9981 32.8516 46.8125C32.5788 46.625 32.3885 46.3636 32.2805 46.0284C32.1726 45.6913 32.1555 45.2992 32.2294 44.8523C32.3033 44.4053 32.45 44.0114 32.6697 43.6705C32.8894 43.3277 33.1631 43.0606 33.4908 42.8693C33.8184 42.6761 34.1783 42.5795 34.5703 42.5795C34.7976 42.5795 35.0163 42.6174 35.2266 42.6932C35.4368 42.7689 35.6186 42.892 35.772 43.0625C35.9254 43.2311 36.0324 43.4545 36.093 43.733C36.1536 44.0114 36.1499 44.3542 36.0817 44.7614L36.0362 45.0455H32.6726L32.7635 44.4659H35.4453C35.4889 44.2197 35.4775 44 35.4112 43.8068C35.3468 43.6136 35.2341 43.4612 35.0732 43.3494C34.9141 43.2377 34.7124 43.1818 34.468 43.1818C34.2161 43.1818 33.9813 43.25 33.7635 43.3864C33.5457 43.5208 33.3639 43.6913 33.218 43.8977C33.0722 44.1023 32.9813 44.3106 32.9453 44.5227L32.8658 45.0227C32.8089 45.3845 32.8175 45.6723 32.8913 45.8864C32.9671 46.1004 33.0987 46.2547 33.2862 46.3494C33.4737 46.4422 33.7086 46.4886 33.9908 46.4886C34.1707 46.4886 34.3364 46.464 34.4879 46.4148C34.6394 46.3636 34.7749 46.2879 34.8942 46.1875C35.0135 46.0852 35.1139 45.9583 35.1953 45.8068L35.8089 45.9886C35.7048 46.2083 35.558 46.4015 35.3686 46.5682C35.1811 46.733 34.9614 46.8617 34.7095 46.9545C34.4595 47.0455 34.1858 47.0909 33.8885 47.0909ZM37.8445 44.375L37.4126 47H36.7422L37.4695 42.6364H38.1172L38.0036 43.3182H38.0604C38.1967 43.0966 38.3814 42.9186 38.6143 42.7841C38.8473 42.6477 39.1286 42.5795 39.4581 42.5795C39.7498 42.5795 39.996 42.6402 40.1967 42.7614C40.3994 42.8807 40.5424 43.0625 40.6257 43.3068C40.7109 43.5492 40.7232 43.8561 40.6626 44.2273L40.1967 47H39.5263L39.9808 44.2727C40.0376 43.9318 39.9931 43.6648 39.8473 43.4716C39.7034 43.2784 39.4751 43.1818 39.1626 43.1818C38.9467 43.1818 38.7469 43.2282 38.5632 43.321C38.3814 43.4138 38.227 43.5492 38.1001 43.7273C37.9751 43.9053 37.8899 44.1212 37.8445 44.375ZM43.0639 47.0909C42.6984 47.0909 42.3916 46.9991 42.1435 46.8153C41.8954 46.6297 41.7202 46.3684 41.6179 46.0312C41.5175 45.6922 41.5052 45.2917 41.581 44.8295C41.6586 44.3712 41.8035 43.9735 42.0156 43.6364C42.2296 43.2992 42.492 43.0388 42.8026 42.8551C43.1132 42.6714 43.4522 42.5795 43.8196 42.5795C44.1037 42.5795 44.3205 42.6269 44.4702 42.7216C44.6217 42.8144 44.7315 42.9205 44.7997 43.0398C44.8679 43.1572 44.92 43.2538 44.956 43.3295H45.0128L45.3707 41.1818H46.0412L45.0753 47H44.4276L44.5412 46.3295H44.4616C44.3991 46.4091 44.312 46.5095 44.2003 46.6307C44.0885 46.75 43.9408 46.857 43.7571 46.9517C43.5753 47.0445 43.3442 47.0909 43.0639 47.0909ZM43.2287 46.4886C43.4976 46.4886 43.7382 46.4186 43.9503 46.2784C44.1643 46.1364 44.3423 45.9403 44.4844 45.6903C44.6264 45.4384 44.7249 45.1477 44.7798 44.8182C44.8348 44.4924 44.8329 44.2074 44.7741 43.9631C44.7154 43.7169 44.6027 43.5256 44.4361 43.3892C44.2694 43.2509 44.0488 43.1818 43.7741 43.1818C43.492 43.1818 43.2467 43.2547 43.0384 43.4006C42.83 43.5445 42.6605 43.7405 42.5298 43.9886C42.3991 44.2348 42.3082 44.5114 42.2571 44.8182C42.206 45.1288 42.205 45.411 42.2543 45.6648C42.3035 45.9167 42.4077 46.1174 42.5668 46.267C42.7277 46.4148 42.9484 46.4886 43.2287 46.4886ZM51.9247 41.1818H52.6293L51.9361 45.3636C51.8755 45.7348 51.7599 46.0483 51.5895 46.304C51.4209 46.5578 51.205 46.7509 50.9418 46.8835C50.6804 47.0142 50.3793 47.0795 50.0384 47.0795C49.7126 47.0795 49.4323 47.0208 49.1974 46.9034C48.9626 46.786 48.7902 46.6193 48.6804 46.4034C48.5705 46.1875 48.5384 45.9318 48.5838 45.6364H49.2543C49.2315 45.8068 49.2495 45.9536 49.3082 46.0767C49.367 46.1979 49.4598 46.2917 49.5866 46.358C49.7154 46.4223 49.8698 46.4545 50.0497 46.4545C50.258 46.4545 50.4437 46.411 50.6065 46.3239C50.7713 46.2348 50.9077 46.1061 51.0156 45.9375C51.1255 45.767 51.2012 45.5606 51.2429 45.3182L51.9247 41.1818ZM54.2571 47.1023C53.9806 47.1023 53.7382 47.0502 53.5298 46.946C53.3215 46.84 53.1671 46.6875 53.0668 46.4886C52.9664 46.2879 52.9389 46.0455 52.9844 45.7614C53.0279 45.5114 53.1122 45.3087 53.2372 45.1534C53.3622 44.9962 53.5137 44.8731 53.6918 44.7841C53.8717 44.6932 54.0649 44.6259 54.2713 44.5824C54.4796 44.5369 54.687 44.5019 54.8935 44.4773C55.1624 44.4432 55.3812 44.4167 55.5497 44.3977C55.7183 44.3788 55.8452 44.3475 55.9304 44.304C56.0156 44.2604 56.0677 44.1856 56.0866 44.0795V44.0568C56.1321 43.7784 56.0952 43.5616 55.9759 43.4062C55.8565 43.2491 55.6435 43.1705 55.3366 43.1705C55.0185 43.1705 54.7524 43.2405 54.5384 43.3807C54.3243 43.5208 54.1662 43.6705 54.0639 43.8295L53.473 43.6023C53.6283 43.3371 53.8139 43.1307 54.0298 42.983C54.2457 42.8333 54.4721 42.7292 54.7088 42.6705C54.9455 42.6098 55.1738 42.5795 55.3935 42.5795C55.5336 42.5795 55.6918 42.5966 55.8679 42.6307C56.044 42.6629 56.2088 42.7301 56.3622 42.8324C56.5175 42.9347 56.634 43.089 56.7116 43.2955C56.7912 43.5019 56.8026 43.7784 56.7457 44.125L56.2685 47H55.598L55.7003 46.4091H55.6662C55.6056 46.5038 55.5128 46.6051 55.3878 46.7131C55.2647 46.821 55.1084 46.9129 54.919 46.9886C54.7315 47.0644 54.5109 47.1023 54.2571 47.1023ZM54.4503 46.5C54.7154 46.5 54.9474 46.4479 55.1463 46.3438C55.3471 46.2396 55.508 46.1051 55.6293 45.9403C55.7524 45.7756 55.8291 45.6023 55.8594 45.4205L55.9616 44.8068C55.9276 44.8409 55.8603 44.8722 55.7599 44.9006C55.6596 44.9271 55.5459 44.9508 55.419 44.9716C55.294 44.9905 55.1719 45.0076 55.0526 45.0227C54.9351 45.036 54.8404 45.0473 54.7685 45.0568C54.5904 45.0795 54.4209 45.1165 54.2599 45.1676C54.1009 45.2169 53.9664 45.2917 53.8565 45.392C53.7486 45.4905 53.6813 45.625 53.6548 45.7955C53.6151 46.0284 53.6709 46.2045 53.8224 46.3239C53.974 46.4413 54.1832 46.5 54.4503 46.5ZM59.2536 47.0909C58.8426 47.0909 58.5054 46.9943 58.2422 46.8011C57.9808 46.608 57.799 46.3419 57.6967 46.0028C57.5945 45.6638 57.5793 45.2765 57.6513 44.8409C57.7232 44.3977 57.8691 44.0066 58.0888 43.6676C58.3085 43.3267 58.5821 43.0606 58.9098 42.8693C59.2375 42.6761 59.5982 42.5795 59.9922 42.5795C60.299 42.5795 60.5661 42.6364 60.7933 42.75C61.0206 42.8636 61.1958 43.0227 61.3189 43.2273C61.442 43.4318 61.4998 43.6705 61.4922 43.9432H60.8217C60.8028 43.7443 60.7176 43.5682 60.5661 43.4148C60.4164 43.2595 60.1948 43.1818 59.9013 43.1818C59.6399 43.1818 59.3994 43.25 59.1797 43.3864C58.96 43.5208 58.7753 43.7112 58.6257 43.9574C58.4761 44.2017 58.3748 44.4886 58.3217 44.8182C58.2649 45.1553 58.2696 45.4489 58.3359 45.6989C58.4022 45.9489 58.5225 46.143 58.6967 46.2812C58.871 46.4195 59.0907 46.4886 59.3558 46.4886C59.5301 46.4886 59.6929 46.4583 59.8445 46.3977C59.996 46.3371 60.1304 46.25 60.2479 46.1364C60.3653 46.0227 60.4581 45.8864 60.5263 45.7273H61.1967C61.1134 45.9848 60.9799 46.2169 60.7962 46.4233C60.6125 46.6278 60.3899 46.7907 60.1286 46.9119C59.8672 47.0312 59.5755 47.0909 59.2536 47.0909ZM63.7621 47.0909C63.3606 47.0909 63.0244 46.9953 62.7536 46.804C62.4827 46.6127 62.2914 46.3447 62.1797 46C62.0698 45.6553 62.0518 45.2538 62.1257 44.7955C62.1977 44.3485 62.3407 43.9593 62.5547 43.6278C62.7706 43.2945 63.0386 43.0369 63.3587 42.8551C63.6806 42.6714 64.0348 42.5795 64.4212 42.5795C64.8227 42.5795 65.1579 42.6761 65.4268 42.8693C65.6977 43.0606 65.889 43.3295 66.0007 43.6761C66.1125 44.0208 66.1314 44.4242 66.0575 44.8864C65.9856 45.3295 65.8407 45.7169 65.6229 46.0483C65.407 46.3778 65.139 46.6345 64.8189 46.8182C64.5007 47 64.1484 47.0909 63.7621 47.0909ZM63.7734 46.4886C64.0803 46.4886 64.3464 46.41 64.5717 46.2528C64.799 46.0956 64.9827 45.8883 65.1229 45.6307C65.2649 45.3731 65.3606 45.0947 65.4098 44.7955C65.4553 44.5114 65.4534 44.2472 65.4041 44.0028C65.3549 43.7566 65.2498 43.5587 65.0888 43.4091C64.9278 43.2576 64.7015 43.1818 64.4098 43.1818C64.103 43.1818 63.835 43.2614 63.6058 43.4205C63.3786 43.5795 63.1948 43.7888 63.0547 44.0483C62.9145 44.3078 62.8208 44.5871 62.7734 44.8864C62.728 45.1705 62.7289 45.4347 62.7763 45.679C62.8255 45.9214 62.9306 46.1174 63.0916 46.267C63.2545 46.4148 63.4818 46.4886 63.7734 46.4886ZM66.8253 47L67.7912 41.1818H68.4616L68.1094 43.3295H68.1662C68.2268 43.2538 68.3111 43.1572 68.419 43.0398C68.527 42.9205 68.6719 42.8144 68.8537 42.7216C69.0355 42.6269 69.2685 42.5795 69.5526 42.5795C69.92 42.5795 70.2277 42.6714 70.4759 42.8551C70.7259 43.0388 70.901 43.2992 71.0014 43.6364C71.1037 43.9735 71.117 44.3712 71.0412 44.8295C70.9654 45.2917 70.8205 45.6922 70.6065 46.0312C70.3944 46.3684 70.133 46.6297 69.8224 46.8153C69.5137 46.9991 69.1776 47.0909 68.8139 47.0909C68.5336 47.0909 68.3168 47.0445 68.1634 46.9517C68.0118 46.857 67.9001 46.75 67.8281 46.6307C67.758 46.5095 67.7041 46.4091 67.6662 46.3295H67.5866L67.473 47H66.8253ZM67.848 44.8182C67.795 45.1477 67.7959 45.4384 67.8509 45.6903C67.9058 45.9403 68.0147 46.1364 68.1776 46.2784C68.3404 46.4186 68.5563 46.4886 68.8253 46.4886C69.1056 46.4886 69.3518 46.4148 69.5639 46.267C69.776 46.1174 69.9503 45.9167 70.0866 45.6648C70.223 45.411 70.3177 45.1288 70.3707 44.8182C70.42 44.5114 70.4181 44.2348 70.3651 43.9886C70.3139 43.7405 70.206 43.5445 70.0412 43.4006C69.8783 43.2547 69.6548 43.1818 69.3707 43.1818C69.098 43.1818 68.8565 43.2509 68.6463 43.3892C68.438 43.5256 68.2656 43.7169 68.1293 43.9631C67.9948 44.2074 67.901 44.4924 67.848 44.8182ZM75.2259 47.1023C74.9493 47.1023 74.7069 47.0502 74.4986 46.946C74.2902 46.84 74.1359 46.6875 74.0355 46.4886C73.9351 46.2879 73.9077 46.0455 73.9531 45.7614C73.9967 45.5114 74.081 45.3087 74.206 45.1534C74.331 44.9962 74.4825 44.8731 74.6605 44.7841C74.8404 44.6932 75.0336 44.6259 75.2401 44.5824C75.4484 44.5369 75.6558 44.5019 75.8622 44.4773C76.1312 44.4432 76.3499 44.4167 76.5185 44.3977C76.687 44.3788 76.8139 44.3475 76.8991 44.304C76.9844 44.2604 77.0365 44.1856 77.0554 44.0795V44.0568C77.1009 43.7784 77.0639 43.5616 76.9446 43.4062C76.8253 43.2491 76.6122 43.1705 76.3054 43.1705C75.9872 43.1705 75.7211 43.2405 75.5071 43.3807C75.2931 43.5208 75.1349 43.6705 75.0327 43.8295L74.4418 43.6023C74.5971 43.3371 74.7827 43.1307 74.9986 42.983C75.2145 42.8333 75.4408 42.7292 75.6776 42.6705C75.9143 42.6098 76.1425 42.5795 76.3622 42.5795C76.5024 42.5795 76.6605 42.5966 76.8366 42.6307C77.0128 42.6629 77.1776 42.7301 77.331 42.8324C77.4863 42.9347 77.6027 43.089 77.6804 43.2955C77.7599 43.5019 77.7713 43.7784 77.7145 44.125L77.2372 47H76.5668L76.669 46.4091H76.6349C76.5743 46.5038 76.4815 46.6051 76.3565 46.7131C76.2334 46.821 76.0772 46.9129 75.8878 46.9886C75.7003 47.0644 75.4796 47.1023 75.2259 47.1023ZM75.419 46.5C75.6842 46.5 75.9162 46.4479 76.1151 46.3438C76.3158 46.2396 76.4768 46.1051 76.598 45.9403C76.7211 45.7756 76.7978 45.6023 76.8281 45.4205L76.9304 44.8068C76.8963 44.8409 76.8291 44.8722 76.7287 44.9006C76.6283 44.9271 76.5147 44.9508 76.3878 44.9716C76.2628 44.9905 76.1406 45.0076 76.0213 45.0227C75.9039 45.036 75.8092 45.0473 75.7372 45.0568C75.5592 45.0795 75.3897 45.1165 75.2287 45.1676C75.0696 45.2169 74.9351 45.2917 74.8253 45.392C74.7173 45.4905 74.6501 45.625 74.6236 45.7955C74.5838 46.0284 74.6397 46.2045 74.7912 46.3239C74.9427 46.4413 75.152 46.5 75.419 46.5ZM84.37 43.6136L83.7337 43.7841C83.7109 43.6818 83.6712 43.5833 83.6143 43.4886C83.5594 43.392 83.4742 43.3134 83.3587 43.2528C83.245 43.1903 83.0897 43.1591 82.8928 43.1591C82.6257 43.1591 82.3937 43.2206 82.1967 43.3438C81.9998 43.465 81.8871 43.6193 81.8587 43.8068C81.8303 43.9716 81.8681 44.1032 81.9723 44.2017C82.0765 44.3002 82.2507 44.3807 82.495 44.4432L83.12 44.6023C83.495 44.6989 83.7621 44.8437 83.9212 45.0369C84.0821 45.2282 84.1371 45.4773 84.0859 45.7841C84.0443 46.0341 83.9354 46.2576 83.7592 46.4545C83.5831 46.6515 83.3577 46.8068 83.0831 46.9205C82.8085 47.0341 82.5026 47.0909 82.1655 47.0909C81.7166 47.0909 81.3625 46.9943 81.103 46.8011C80.8435 46.6061 80.7053 46.3239 80.6882 45.9545L81.3587 45.7955C81.3757 46.0284 81.459 46.2045 81.6087 46.3239C81.7602 46.4413 81.9723 46.5 82.245 46.5C82.5575 46.5 82.8179 46.4337 83.0263 46.3011C83.2346 46.1667 83.353 46.0057 83.3814 45.8182C83.4098 45.6648 83.3795 45.5369 83.2905 45.4347C83.2034 45.3324 83.0518 45.2557 82.8359 45.2045L82.1428 45.0341C81.7564 44.9375 81.4856 44.7898 81.3303 44.5909C81.1768 44.392 81.1257 44.142 81.1768 43.8409C81.2185 43.5947 81.3246 43.3769 81.495 43.1875C81.6674 42.9981 81.8833 42.8494 82.1428 42.7415C82.4041 42.6335 82.6882 42.5795 82.995 42.5795C83.4268 42.5795 83.7498 42.6742 83.9638 42.8636C84.1778 43.0511 84.3132 43.3011 84.37 43.6136ZM86.527 41.1818L85.5611 47H84.8906L85.8565 41.1818H86.527ZM88.5902 47.0909C88.1887 47.0909 87.8525 46.9953 87.5817 46.804C87.3108 46.6127 87.1196 46.3447 87.0078 46C86.898 45.6553 86.88 45.2538 86.9538 44.7955C87.0258 44.3485 87.1688 43.9593 87.3828 43.6278C87.5987 43.2945 87.8667 43.0369 88.1868 42.8551C88.5088 42.6714 88.8629 42.5795 89.2493 42.5795C89.6508 42.5795 89.986 42.6761 90.255 42.8693C90.5258 43.0606 90.7171 43.3295 90.8288 43.6761C90.9406 44.0208 90.9595 44.4242 90.8857 44.8864C90.8137 45.3295 90.6688 45.7169 90.451 46.0483C90.2351 46.3778 89.9671 46.6345 89.647 46.8182C89.3288 47 88.9766 47.0909 88.5902 47.0909ZM88.6016 46.4886C88.9084 46.4886 89.1745 46.41 89.3999 46.2528C89.6271 46.0956 89.8108 45.8883 89.951 45.6307C90.093 45.3731 90.1887 45.0947 90.2379 44.7955C90.2834 44.5114 90.2815 44.2472 90.2322 44.0028C90.183 43.7566 90.0779 43.5587 89.9169 43.4091C89.7559 43.2576 89.5296 43.1818 89.2379 43.1818C88.9311 43.1818 88.6631 43.2614 88.4339 43.4205C88.2067 43.5795 88.023 43.7888 87.8828 44.0483C87.7427 44.3078 87.6489 44.5871 87.6016 44.8864C87.5561 45.1705 87.5571 45.4347 87.6044 45.679C87.6536 45.9214 87.7588 46.1174 87.9197 46.267C88.0826 46.4148 88.3099 46.4886 88.6016 46.4886ZM93.0511 48.7273C92.7254 48.7273 92.4527 48.6856 92.233 48.6023C92.0133 48.5208 91.8371 48.4129 91.7045 48.2784C91.572 48.1458 91.4716 48.0038 91.4034 47.8523L92.0057 47.4773C92.0511 47.5568 92.1098 47.6477 92.1818 47.75C92.2538 47.8542 92.3627 47.9441 92.5085 48.0199C92.6562 48.0975 92.8636 48.1364 93.1307 48.1364C93.4811 48.1364 93.7879 48.0511 94.0511 47.8807C94.3144 47.7102 94.4773 47.4432 94.5398 47.0795L94.6761 46.1932H94.6193C94.5587 46.2727 94.4744 46.3712 94.3665 46.4886C94.2585 46.6042 94.1136 46.7074 93.9318 46.7983C93.75 46.8873 93.517 46.9318 93.233 46.9318C92.8788 46.9318 92.5758 46.8485 92.3239 46.6818C92.072 46.5152 91.8911 46.2727 91.7812 45.9545C91.6733 45.6364 91.6572 45.25 91.733 44.7955C91.8068 44.3485 91.9489 43.9593 92.1591 43.6278C92.3712 43.2945 92.6326 43.0369 92.9432 42.8551C93.2538 42.6714 93.5928 42.5795 93.9602 42.5795C94.2443 42.5795 94.4621 42.6269 94.6136 42.7216C94.767 42.8144 94.8788 42.9205 94.9489 43.0398C95.0189 43.1572 95.072 43.2538 95.108 43.3295H95.1761L95.2898 42.6364H95.9375L95.1989 47.125C95.1364 47.5 95.0009 47.8049 94.7926 48.0398C94.5843 48.2765 94.3286 48.4498 94.0256 48.5597C93.7225 48.6714 93.3977 48.7273 93.0511 48.7273ZM93.4034 46.3295C93.6705 46.3295 93.9081 46.268 94.1165 46.1449C94.3267 46.0218 94.5009 45.8447 94.6392 45.6136C94.7775 45.3826 94.8731 45.1061 94.9261 44.7841C94.9792 44.4697 94.9754 44.1922 94.9148 43.9517C94.8542 43.7112 94.7396 43.5227 94.571 43.3864C94.4044 43.25 94.1856 43.1818 93.9148 43.1818C93.6288 43.1818 93.3816 43.2538 93.1733 43.3977C92.9669 43.5417 92.7992 43.7348 92.6705 43.9773C92.5417 44.2197 92.4527 44.4886 92.4034 44.7841C92.3542 45.0871 92.3561 45.3551 92.4091 45.5881C92.4621 45.8191 92.5701 46.0009 92.733 46.1335C92.8977 46.2642 93.1212 46.3295 93.4034 46.3295ZM97.7102 47.1023C97.4337 47.1023 97.1913 47.0502 96.983 46.946C96.7746 46.84 96.6203 46.6875 96.5199 46.4886C96.4195 46.2879 96.392 46.0455 96.4375 45.7614C96.4811 45.5114 96.5653 45.3087 96.6903 45.1534C96.8153 44.9962 96.9669 44.8731 97.1449 44.7841C97.3248 44.6932 97.518 44.6259 97.7244 44.5824C97.9328 44.5369 98.1402 44.5019 98.3466 44.4773C98.6155 44.4432 98.8343 44.4167 99.0028 44.3977C99.1714 44.3788 99.2983 44.3475 99.3835 44.304C99.4688 44.2604 99.5208 44.1856 99.5398 44.0795V44.0568C99.5852 43.7784 99.5483 43.5616 99.429 43.4062C99.3097 43.2491 99.0966 43.1705 98.7898 43.1705C98.4716 43.1705 98.2055 43.2405 97.9915 43.3807C97.7775 43.5208 97.6193 43.6705 97.517 43.8295L96.9261 43.6023C97.0814 43.3371 97.267 43.1307 97.483 42.983C97.6989 42.8333 97.9252 42.7292 98.1619 42.6705C98.3987 42.6098 98.6269 42.5795 98.8466 42.5795C98.9867 42.5795 99.1449 42.5966 99.321 42.6307C99.4972 42.6629 99.6619 42.7301 99.8153 42.8324C99.9706 42.9347 100.087 43.089 100.165 43.2955C100.244 43.5019 100.256 43.7784 100.199 44.125L99.7216 47H99.0511L99.1534 46.4091H99.1193C99.0587 46.5038 98.9659 46.6051 98.8409 46.7131C98.7178 46.821 98.5616 46.9129 98.3722 46.9886C98.1847 47.0644 97.964 47.1023 97.7102 47.1023ZM97.9034 46.5C98.1686 46.5 98.4006 46.4479 98.5994 46.3438C98.8002 46.2396 98.9612 46.1051 99.0824 45.9403C99.2055 45.7756 99.2822 45.6023 99.3125 45.4205L99.4148 44.8068C99.3807 44.8409 99.3134 44.8722 99.2131 44.9006C99.1127 44.9271 98.9991 44.9508 98.8722 44.9716C98.7472 44.9905 98.625 45.0076 98.5057 45.0227C98.3883 45.036 98.2936 45.0473 98.2216 45.0568C98.0436 45.0795 97.8741 45.1165 97.7131 45.1676C97.554 45.2169 97.4195 45.2917 97.3097 45.392C97.2017 45.4905 97.1345 45.625 97.108 45.7955C97.0682 46.0284 97.1241 46.2045 97.2756 46.3239C97.4271 46.4413 97.6364 46.5 97.9034 46.5ZM102.048 44.375L101.616 47H100.945L101.673 42.6364H102.32L102.207 43.3182H102.263C102.4 43.0966 102.585 42.9186 102.817 42.7841C103.05 42.6477 103.332 42.5795 103.661 42.5795C103.953 42.5795 104.199 42.6402 104.4 42.7614C104.603 42.8807 104.746 43.0625 104.829 43.3068C104.914 43.5492 104.926 43.8561 104.866 44.2273L104.4 47H103.729L104.184 44.2727C104.241 43.9318 104.196 43.6648 104.05 43.4716C103.906 43.2784 103.678 43.1818 103.366 43.1818C103.15 43.1818 102.95 43.2282 102.766 43.321C102.585 43.4138 102.43 43.5492 102.303 43.7273C102.178 43.9053 102.093 44.1212 102.048 44.375ZM111.534 43.6136L110.898 43.7841C110.875 43.6818 110.835 43.5833 110.778 43.4886C110.723 43.392 110.638 43.3134 110.523 43.2528C110.409 43.1903 110.254 43.1591 110.057 43.1591C109.79 43.1591 109.558 43.2206 109.361 43.3438C109.164 43.465 109.051 43.6193 109.023 43.8068C108.994 43.9716 109.032 44.1032 109.136 44.2017C109.241 44.3002 109.415 44.3807 109.659 44.4432L110.284 44.6023C110.659 44.6989 110.926 44.8437 111.085 45.0369C111.246 45.2282 111.301 45.4773 111.25 45.7841C111.208 46.0341 111.099 46.2576 110.923 46.4545C110.747 46.6515 110.522 46.8068 110.247 46.9205C109.973 47.0341 109.667 47.0909 109.33 47.0909C108.881 47.0909 108.527 46.9943 108.267 46.8011C108.008 46.6061 107.869 46.3239 107.852 45.9545L108.523 45.7955C108.54 46.0284 108.623 46.2045 108.773 46.3239C108.924 46.4413 109.136 46.5 109.409 46.5C109.722 46.5 109.982 46.4337 110.19 46.3011C110.399 46.1667 110.517 46.0057 110.545 45.8182C110.574 45.6648 110.544 45.5369 110.455 45.4347C110.367 45.3324 110.216 45.2557 110 45.2045L109.307 45.0341C108.92 44.9375 108.65 44.7898 108.494 44.5909C108.341 44.392 108.29 44.142 108.341 43.8409C108.383 43.5947 108.489 43.3769 108.659 43.1875C108.831 42.9981 109.047 42.8494 109.307 42.7415C109.568 42.6335 109.852 42.5795 110.159 42.5795C110.591 42.5795 110.914 42.6742 111.128 42.8636C111.342 43.0511 111.477 43.3011 111.534 43.6136ZM113.856 47.0909C113.454 47.0909 113.118 46.9953 112.847 46.804C112.576 46.6127 112.385 46.3447 112.273 46C112.164 45.6553 112.146 45.2538 112.219 44.7955C112.291 44.3485 112.434 43.9593 112.648 43.6278C112.864 43.2945 113.132 43.0369 113.452 42.8551C113.774 42.6714 114.129 42.5795 114.515 42.5795C114.916 42.5795 115.252 42.6761 115.521 42.8693C115.791 43.0606 115.983 43.3295 116.094 43.6761C116.206 44.0208 116.225 44.4242 116.151 44.8864C116.079 45.3295 115.934 45.7169 115.717 46.0483C115.501 46.3778 115.233 46.6345 114.913 46.8182C114.594 47 114.242 47.0909 113.856 47.0909ZM113.867 46.4886C114.174 46.4886 114.44 46.41 114.665 46.2528C114.893 46.0956 115.076 45.8883 115.217 45.6307C115.359 45.3731 115.454 45.0947 115.504 44.7955C115.549 44.5114 115.547 44.2472 115.498 44.0028C115.449 43.7566 115.344 43.5587 115.183 43.4091C115.022 43.2576 114.795 43.1818 114.504 43.1818C114.197 43.1818 113.929 43.2614 113.7 43.4205C113.472 43.5795 113.289 43.7888 113.148 44.0483C113.008 44.3078 112.915 44.5871 112.867 44.8864C112.822 45.1705 112.823 45.4347 112.87 45.679C112.919 45.9214 113.024 46.1174 113.185 46.267C113.348 46.4148 113.576 46.4886 113.867 46.4886ZM120.839 41.1818L119.874 47H119.169L120.135 41.1818H120.839ZM122.752 41.1818L122.673 41.6932C122.648 41.8485 122.592 42.0142 122.505 42.1903C122.42 42.3646 122.31 42.5341 122.175 42.6989C122.041 42.8617 121.888 43.0038 121.718 43.125L121.4 42.8295C121.548 42.6591 121.679 42.482 121.795 42.2983C121.912 42.1127 121.989 41.9148 122.025 41.7045L122.116 41.1818H122.752ZM122.508 47L123.235 42.6364H123.883L123.769 43.3182H123.826C123.957 43.0852 124.134 42.9044 124.357 42.7756C124.583 42.6449 124.837 42.5795 125.121 42.5795C125.406 42.5795 125.634 42.6449 125.806 42.7756C125.978 42.9044 126.099 43.0852 126.167 43.3182H126.212C126.36 43.0909 126.557 42.911 126.803 42.7784C127.051 42.6458 127.332 42.5795 127.644 42.5795C128.031 42.5795 128.328 42.7017 128.536 42.946C128.746 43.1903 128.809 43.5682 128.724 44.0795L128.235 47H127.565L128.053 44.0795C128.104 43.7557 128.053 43.5256 127.9 43.3892C127.748 43.2509 127.553 43.1818 127.315 43.1818C127.008 43.1818 126.755 43.2737 126.556 43.4574C126.357 43.6411 126.235 43.875 126.19 44.1591L125.712 47H125.031L125.531 44.0114C125.57 43.7614 125.523 43.5606 125.388 43.4091C125.254 43.2576 125.059 43.1818 124.803 43.1818C124.629 43.1818 124.459 43.2292 124.292 43.3239C124.125 43.4167 123.982 43.5455 123.863 43.7102C123.744 43.8731 123.667 44.0606 123.633 44.2727L123.178 47H122.508ZM132.984 47.1023C132.707 47.1023 132.465 47.0502 132.256 46.946C132.048 46.84 131.894 46.6875 131.793 46.4886C131.693 46.2879 131.665 46.0455 131.711 45.7614C131.754 45.5114 131.839 45.3087 131.964 45.1534C132.089 44.9962 132.24 44.8731 132.418 44.7841C132.598 44.6932 132.791 44.6259 132.998 44.5824C133.206 44.5369 133.414 44.5019 133.62 44.4773C133.889 44.4432 134.108 44.4167 134.276 44.3977C134.445 44.3788 134.572 44.3475 134.657 44.304C134.742 44.2604 134.794 44.1856 134.813 44.0795V44.0568C134.859 43.7784 134.822 43.5616 134.702 43.4062C134.583 43.2491 134.37 43.1705 134.063 43.1705C133.745 43.1705 133.479 43.2405 133.265 43.3807C133.051 43.5208 132.893 43.6705 132.79 43.8295L132.2 43.6023C132.355 43.3371 132.54 43.1307 132.756 42.983C132.972 42.8333 133.199 42.7292 133.435 42.6705C133.672 42.6098 133.9 42.5795 134.12 42.5795C134.26 42.5795 134.418 42.5966 134.594 42.6307C134.771 42.6629 134.935 42.7301 135.089 42.8324C135.244 42.9347 135.361 43.089 135.438 43.2955C135.518 43.5019 135.529 43.7784 135.472 44.125L134.995 47H134.325L134.427 46.4091H134.393C134.332 46.5038 134.239 46.6051 134.114 46.7131C133.991 46.821 133.835 46.9129 133.646 46.9886C133.458 47.0644 133.237 47.1023 132.984 47.1023ZM133.177 46.5C133.442 46.5 133.674 46.4479 133.873 46.3438C134.074 46.2396 134.235 46.1051 134.356 45.9403C134.479 45.7756 134.556 45.6023 134.586 45.4205L134.688 44.8068C134.654 44.8409 134.587 44.8722 134.487 44.9006C134.386 44.9271 134.272 44.9508 134.146 44.9716C134.021 44.9905 133.898 45.0076 133.779 45.0227C133.662 45.036 133.567 45.0473 133.495 45.0568C133.317 45.0795 133.147 45.1165 132.987 45.1676C132.827 45.2169 132.693 45.2917 132.583 45.392C132.475 45.4905 132.408 45.625 132.381 45.7955C132.342 46.0284 132.397 46.2045 132.549 46.3239C132.701 46.4413 132.91 46.5 133.177 46.5ZM140.111 47.0909C139.745 47.0909 139.438 46.9991 139.19 46.8153C138.942 46.6297 138.767 46.3684 138.665 46.0312C138.564 45.6922 138.552 45.2917 138.628 44.8295C138.705 44.3712 138.85 43.9735 139.062 43.6364C139.277 43.2992 139.539 43.0388 139.849 42.8551C140.16 42.6714 140.499 42.5795 140.866 42.5795C141.151 42.5795 141.367 42.6269 141.517 42.7216C141.669 42.8144 141.778 42.9205 141.847 43.0398C141.915 43.1572 141.967 43.2538 142.003 43.3295H142.06L142.418 41.1818H143.088L142.122 47H141.474L141.588 46.3295H141.509C141.446 46.4091 141.359 46.5095 141.247 46.6307C141.135 46.75 140.988 46.857 140.804 46.9517C140.622 47.0445 140.391 47.0909 140.111 47.0909ZM140.276 46.4886C140.545 46.4886 140.785 46.4186 140.997 46.2784C141.211 46.1364 141.389 45.9403 141.531 45.6903C141.673 45.4384 141.772 45.1477 141.827 44.8182C141.882 44.4924 141.88 44.2074 141.821 43.9631C141.762 43.7169 141.65 43.5256 141.483 43.3892C141.316 43.2509 141.096 43.1818 140.821 43.1818C140.539 43.1818 140.294 43.2547 140.085 43.4006C139.877 43.5445 139.707 43.7405 139.577 43.9886C139.446 44.2348 139.355 44.5114 139.304 44.8182C139.253 45.1288 139.252 45.411 139.301 45.6648C139.35 45.9167 139.455 46.1174 139.614 46.267C139.775 46.4148 139.995 46.4886 140.276 46.4886ZM146.483 45.2159L146.915 42.6364H147.585L146.858 47H146.188L146.312 46.2614H146.267C146.131 46.483 145.94 46.6714 145.696 46.8267C145.452 46.9801 145.165 47.0568 144.835 47.0568C144.563 47.0568 144.33 46.9972 144.136 46.8778C143.945 46.7566 143.809 46.5748 143.727 46.3324C143.648 46.0881 143.638 45.7803 143.699 45.4091L144.165 42.6364H144.835L144.381 45.3636C144.33 45.6818 144.378 45.9356 144.526 46.125C144.673 46.3144 144.886 46.4091 145.165 46.4091C145.331 46.4091 145.508 46.3665 145.693 46.2812C145.881 46.196 146.047 46.0653 146.193 45.8892C146.341 45.7131 146.438 45.4886 146.483 45.2159ZM148.086 47L148.813 42.6364H149.461L149.347 43.3182H149.404C149.535 43.0852 149.712 42.9044 149.935 42.7756C150.161 42.6449 150.415 42.5795 150.7 42.5795C150.984 42.5795 151.212 42.6449 151.384 42.7756C151.557 42.9044 151.677 43.0852 151.745 43.3182H151.79C151.938 43.0909 152.135 42.911 152.381 42.7784C152.629 42.6458 152.91 42.5795 153.222 42.5795C153.609 42.5795 153.906 42.7017 154.114 42.946C154.325 43.1903 154.387 43.5682 154.302 44.0795L153.813 47H153.143L153.631 44.0795C153.683 43.7557 153.631 43.5256 153.478 43.3892C153.326 43.2509 153.131 43.1818 152.893 43.1818C152.586 43.1818 152.333 43.2737 152.134 43.4574C151.935 43.6411 151.813 43.875 151.768 44.1591L151.29 47H150.609L151.109 44.0114C151.148 43.7614 151.101 43.5606 150.967 43.4091C150.832 43.2576 150.637 43.1818 150.381 43.1818C150.207 43.1818 150.037 43.2292 149.87 43.3239C149.703 43.4167 149.56 43.5455 149.441 43.7102C149.322 43.8731 149.245 44.0606 149.211 44.2727L148.756 47H148.086ZM155.039 47L155.766 42.6364H156.414L156.3 43.3182H156.357C156.488 43.0852 156.665 42.9044 156.888 42.7756C157.114 42.6449 157.369 42.5795 157.653 42.5795C157.937 42.5795 158.165 42.6449 158.337 42.7756C158.51 42.9044 158.63 43.0852 158.698 43.3182H158.744C158.891 43.0909 159.088 42.911 159.335 42.7784C159.583 42.6458 159.863 42.5795 160.175 42.5795C160.562 42.5795 160.859 42.7017 161.067 42.946C161.278 43.1903 161.34 43.5682 161.255 44.0795L160.766 47H160.096L160.585 44.0795C160.636 43.7557 160.585 43.5256 160.431 43.3892C160.28 43.2509 160.085 43.1818 159.846 43.1818C159.539 43.1818 159.286 43.2737 159.087 43.4574C158.888 43.6411 158.766 43.875 158.721 44.1591L158.244 47H157.562L158.062 44.0114C158.102 43.7614 158.054 43.5606 157.92 43.4091C157.785 43.2576 157.59 43.1818 157.335 43.1818C157.16 43.1818 156.99 43.2292 156.823 43.3239C156.656 43.4167 156.513 43.5455 156.394 43.7102C156.275 43.8731 156.198 44.0606 156.164 44.2727L155.71 47H155.039ZM162.001 48.6364C161.887 48.6364 161.787 48.6269 161.7 48.608C161.614 48.5909 161.556 48.5739 161.523 48.5568L161.796 47.9659C161.951 48.0076 162.09 48.0199 162.211 48.0028C162.334 47.9877 162.451 47.928 162.56 47.8239C162.672 47.7216 162.789 47.5606 162.91 47.3409L163.097 47L162.222 42.6364H162.921L163.546 46.125H163.592L165.376 42.6364H166.131L163.455 47.6307C163.33 47.8636 163.193 48.054 163.043 48.2017C162.894 48.3494 162.732 48.4583 162.558 48.5284C162.383 48.6004 162.198 48.6364 162.001 48.6364Z" fill="#F3F3F3"/>
<path d="M15.2656 23.0469V18.5625C15.2656 17.9479 15.1458 17.3698 14.9062 16.8281C14.6771 16.276 14.3594 15.7969 13.9531 15.3906C13.5469 14.9844 13.0677 14.6667 12.5156 14.4375C11.974 14.1979 11.3958 14.0781 10.7812 14.0781C10.1667 14.0781 9.58333 14.1979 9.03125 14.4375C8.48958 14.6667 8.01562 14.9844 7.60938 15.3906C7.20312 15.7969 6.88021 16.276 6.64062 16.8281C6.41146 17.3698 6.29688 17.9479 6.29688 18.5625V23.0469H15.2656ZM19.75 32H15.2656V27.5156H6.29688V32H1.82812V18.5625C1.82812 17.3229 2.0625 16.1615 2.53125 15.0781C3 13.9844 3.63542 13.0312 4.4375 12.2188C5.25 11.4062 6.19792 10.7656 7.28125 10.2969C8.375 9.82812 9.54167 9.59375 10.7812 9.59375C12.0208 9.59375 13.1823 9.82812 14.2656 10.2969C15.3594 10.7656 16.3125 11.4062 17.125 12.2188C17.9375 13.0312 18.5781 13.9844 19.0469 15.0781C19.5156 16.1615 19.75 17.3229 19.75 18.5625V32ZM41.5938 20.7969C41.5938 21.8281 41.4583 22.8229 41.1875 23.7812C40.9271 24.7292 40.5521 25.6198 40.0625 26.4531C39.5729 27.276 38.9896 28.0312 38.3125 28.7188C37.6354 29.3958 36.8802 29.9792 36.0469 30.4688C35.2135 30.9583 34.3177 31.3385 33.3594 31.6094C32.4115 31.8698 31.4219 32 30.3906 32H23.6406V9.59375H30.3906C31.4219 9.59375 32.4115 9.72917 33.3594 10C34.3177 10.2604 35.2135 10.6354 36.0469 11.125C36.8802 11.6146 37.6354 12.2031 38.3125 12.8906C38.9896 13.5677 39.5729 14.3229 40.0625 15.1562C40.5521 15.9792 40.9271 16.8698 41.1875 17.8281C41.4583 18.776 41.5938 19.7656 41.5938 20.7969ZM37.1094 20.7969C37.1094 19.8698 36.9323 19 36.5781 18.1875C36.2344 17.375 35.7552 16.6667 35.1406 16.0625C34.5365 15.4479 33.8229 14.9635 33 14.6094C32.1875 14.2552 31.3177 14.0781 30.3906 14.0781H28.1562V27.5156H30.3906C31.3177 27.5156 32.1875 27.3438 33 27C33.8229 26.6458 34.5365 26.1667 35.1406 25.5625C35.7552 24.9479 36.2344 24.2344 36.5781 23.4219C36.9323 22.599 37.1094 21.724 37.1094 20.7969ZM57.7656 23.0469V18.5625C57.7656 17.9479 57.6458 17.3698 57.4062 16.8281C57.1771 16.276 56.8594 15.7969 56.4531 15.3906C56.0469 14.9844 55.5677 14.6667 55.0156 14.4375C54.474 14.1979 53.8958 14.0781 53.2812 14.0781C52.6667 14.0781 52.0833 14.1979 51.5312 14.4375C50.9896 14.6667 50.5156 14.9844 50.1094 15.3906C49.7031 15.7969 49.3802 16.276 49.1406 16.8281C48.9115 17.3698 48.7969 17.9479 48.7969 18.5625V23.0469H57.7656ZM62.25 32H57.7656V27.5156H48.7969V32H44.3281V18.5625C44.3281 17.3229 44.5625 16.1615 45.0312 15.0781C45.5 13.9844 46.1354 13.0312 46.9375 12.2188C47.75 11.4062 48.6979 10.7656 49.7812 10.2969C50.875 9.82812 52.0417 9.59375 53.2812 9.59375C54.5208 9.59375 55.6823 9.82812 56.7656 10.2969C57.8594 10.7656 58.8125 11.4062 59.625 12.2188C60.4375 13.0312 61.0781 13.9844 61.5469 15.0781C62.0156 16.1615 62.25 17.3229 62.25 18.5625V32ZM70.625 14.0781V23.0469H75.1094C75.724 23.0469 76.3021 22.9323 76.8438 22.7031C77.3854 22.4635 77.8594 22.1406 78.2656 21.7344C78.6719 21.3281 78.9896 20.8542 79.2188 20.3125C79.4583 19.7604 79.5781 19.1771 79.5781 18.5625C79.5781 17.9479 79.4583 17.3698 79.2188 16.8281C78.9896 16.276 78.6719 15.7969 78.2656 15.3906C77.8594 14.9844 77.3854 14.6667 76.8438 14.4375C76.3021 14.1979 75.724 14.0781 75.1094 14.0781H70.625ZM70.625 32H66.1406V9.59375H75.1094C75.9323 9.59375 76.724 9.70312 77.4844 9.92188C78.2448 10.1302 78.9531 10.4323 79.6094 10.8281C80.276 11.2135 80.8802 11.6823 81.4219 12.2344C81.974 12.776 82.4427 13.3802 82.8281 14.0469C83.224 14.7135 83.526 15.4271 83.7344 16.1875C83.9531 16.9479 84.0625 17.7396 84.0625 18.5625C84.0625 19.7917 83.8281 20.9531 83.3594 22.0469C82.8906 23.1302 82.25 24.0781 81.4375 24.8906C80.625 25.7031 79.6719 26.3438 78.5781 26.8125C77.4948 27.2812 76.3385 27.5156 75.1094 27.5156H70.625V32ZM95.9219 32H91.4531V14.0781H84.7188V9.59375H102.641V14.0781H95.9219V32ZM117.516 23.0469V18.5625C117.516 17.9479 117.396 17.3698 117.156 16.8281C116.927 16.276 116.609 15.7969 116.203 15.3906C115.797 14.9844 115.318 14.6667 114.766 14.4375C114.224 14.1979 113.646 14.0781 113.031 14.0781C112.417 14.0781 111.833 14.1979 111.281 14.4375C110.74 14.6667 110.266 14.9844 109.859 15.3906C109.453 15.7969 109.13 16.276 108.891 16.8281C108.661 17.3698 108.547 17.9479 108.547 18.5625V23.0469H117.516ZM122 32H117.516V27.5156H108.547V32H104.078V18.5625C104.078 17.3229 104.312 16.1615 104.781 15.0781C105.25 13.9844 105.885 13.0312 106.688 12.2188C107.5 11.4062 108.448 10.7656 109.531 10.2969C110.625 9.82812 111.792 9.59375 113.031 9.59375C114.271 9.59375 115.432 9.82812 116.516 10.2969C117.609 10.7656 118.562 11.4062 119.375 12.2188C120.188 13.0312 120.828 13.9844 121.297 15.0781C121.766 16.1615 122 17.3229 122 18.5625V32ZM143.781 29.7031C142.74 30.599 141.573 31.2865 140.281 31.7656C138.99 32.2448 137.651 32.4844 136.266 32.4844C135.203 32.4844 134.177 32.3438 133.188 32.0625C132.208 31.7917 131.286 31.4062 130.422 30.9062C129.568 30.3958 128.786 29.7865 128.078 29.0781C127.37 28.3698 126.76 27.5885 126.25 26.7344C125.75 25.8698 125.359 24.9479 125.078 23.9688C124.807 22.9792 124.672 21.9531 124.672 20.8906C124.672 19.8281 124.807 18.8021 125.078 17.8125C125.359 16.8229 125.75 15.901 126.25 15.0469C126.76 14.1823 127.37 13.3958 128.078 12.6875C128.786 11.9792 129.568 11.375 130.422 10.875C131.286 10.3646 132.208 9.97396 133.188 9.70312C134.177 9.42188 135.203 9.28125 136.266 9.28125C137.651 9.28125 138.99 9.52083 140.281 10C141.573 10.4688 142.74 11.1562 143.781 12.0625L141.406 15.9688C140.75 15.2604 139.974 14.7188 139.078 14.3438C138.182 13.9583 137.245 13.7656 136.266 13.7656C135.276 13.7656 134.349 13.9531 133.484 14.3281C132.62 14.7031 131.865 15.2135 131.219 15.8594C130.573 16.4948 130.062 17.25 129.688 18.125C129.312 18.9896 129.125 19.9115 129.125 20.8906C129.125 21.8698 129.312 22.7917 129.688 23.6562C130.062 24.5104 130.573 25.2604 131.219 25.9062C131.865 26.5521 132.62 27.0625 133.484 27.4375C134.349 27.8125 135.276 28 136.266 28C137.245 28 138.182 27.8125 139.078 27.4375C139.974 27.0521 140.75 26.5052 141.406 25.7969L143.781 29.7031ZM167.688 20.8906C167.688 21.9531 167.547 22.9792 167.266 23.9688C166.995 24.9479 166.609 25.8698 166.109 26.7344C165.609 27.5885 165.005 28.3698 164.297 29.0781C163.589 29.7865 162.807 30.3958 161.953 30.9062C161.099 31.4062 160.177 31.7917 159.188 32.0625C158.198 32.3438 157.172 32.4844 156.109 32.4844C155.047 32.4844 154.021 32.3438 153.031 32.0625C152.052 31.7917 151.13 31.4062 150.266 30.9062C149.411 30.3958 148.63 29.7865 147.922 29.0781C147.214 28.3698 146.604 27.5885 146.094 26.7344C145.594 25.8698 145.203 24.9479 144.922 23.9688C144.651 22.9792 144.516 21.9531 144.516 20.8906C144.516 19.8281 144.651 18.8021 144.922 17.8125C145.203 16.8229 145.594 15.901 146.094 15.0469C146.604 14.1927 147.214 13.4115 147.922 12.7031C148.63 11.9948 149.411 11.3906 150.266 10.8906C151.13 10.3906 152.052 10.0052 153.031 9.73438C154.021 9.45312 155.047 9.3125 156.109 9.3125C157.172 9.3125 158.198 9.45312 159.188 9.73438C160.177 10.0052 161.099 10.3906 161.953 10.8906C162.807 11.3906 163.589 11.9948 164.297 12.7031C165.005 13.4115 165.609 14.1927 166.109 15.0469C166.609 15.901 166.995 16.8229 167.266 17.8125C167.547 18.8021 167.688 19.8281 167.688 20.8906ZM163.234 20.8906C163.234 19.9115 163.047 18.9896 162.672 18.125C162.297 17.25 161.786 16.4948 161.141 15.8594C160.505 15.2135 159.75 14.7031 158.875 14.3281C158.01 13.9531 157.089 13.7656 156.109 13.7656C155.12 13.7656 154.193 13.9531 153.328 14.3281C152.464 14.7031 151.708 15.2135 151.062 15.8594C150.417 16.4948 149.906 17.25 149.531 18.125C149.156 18.9896 148.969 19.9115 148.969 20.8906C148.969 21.8698 149.156 22.7917 149.531 23.6562C149.906 24.5104 150.417 25.2604 151.062 25.9062C151.708 26.5521 152.464 27.0625 153.328 27.4375C154.193 27.8125 155.12 28 156.109 28C157.089 28 158.01 27.8125 158.875 27.4375C159.75 27.0625 160.505 26.5521 161.141 25.9062C161.786 25.2604 162.297 24.5104 162.672 23.6562C163.047 22.7917 163.234 21.8698 163.234 20.8906ZM192.875 32H188.406V16C188.406 15.6875 188.344 15.3958 188.219 15.125C188.104 14.8542 187.943 14.6198 187.734 14.4219C187.536 14.2135 187.302 14.0521 187.031 13.9375C186.76 13.8229 186.469 13.7656 186.156 13.7656C185.844 13.7656 185.552 13.8229 185.281 13.9375C185.01 14.0521 184.771 14.2135 184.562 14.4219C184.365 14.6198 184.208 14.8542 184.094 15.125C183.979 15.3958 183.922 15.6875 183.922 16V32H179.438V16C179.438 15.6875 179.38 15.3958 179.266 15.125C179.151 14.8542 178.99 14.6198 178.781 14.4219C178.583 14.2135 178.349 14.0521 178.078 13.9375C177.807 13.8229 177.516 13.7656 177.203 13.7656C176.891 13.7656 176.599 13.8229 176.328 13.9375C176.057 14.0521 175.818 14.2135 175.609 14.4219C175.411 14.6198 175.255 14.8542 175.141 15.125C175.026 15.3958 174.969 15.6875 174.969 16V32H170.484V16C170.484 15.0729 170.656 14.2031 171 13.3906C171.354 12.5677 171.833 11.8542 172.438 11.25C173.052 10.6354 173.766 10.1562 174.578 9.8125C175.401 9.45833 176.276 9.28125 177.203 9.28125C178.036 9.28125 178.839 9.43229 179.609 9.73438C180.38 10.026 181.073 10.4531 181.688 11.0156C182.302 10.4531 182.99 10.026 183.75 9.73438C184.521 9.43229 185.323 9.28125 186.156 9.28125C187.083 9.28125 187.953 9.45833 188.766 9.8125C189.589 10.1562 190.302 10.6354 190.906 11.25C191.521 11.8542 192 12.5677 192.344 13.3906C192.698 14.2031 192.875 15.0729 192.875 16V32Z" fill="#F3F3F3"/>
</svg>
