<svg width="105" height="21" viewBox="0 0 105 21" fill="none" xmlns="http://www.w3.org/2000/svg">
<path fill-rule="evenodd" clip-rule="evenodd" d="M0.455841 15H105V0H0.485272L7.97056 7.48528L0.455841 15Z" fill="#CC0000"/>
<path d="M20.1591 10H18.3409L19.3068 4.18182H21.1591C21.7235 4.18182 22.1884 4.30019 22.554 4.53693C22.9214 4.77367 23.1771 5.11174 23.321 5.55114C23.4669 5.99053 23.4886 6.51515 23.3864 7.125C23.2879 7.72348 23.0966 8.23769 22.8125 8.66761C22.5303 9.09564 22.1648 9.42519 21.7159 9.65625C21.2689 9.88542 20.75 10 20.1591 10ZM19.1506 9.375H20.1818C20.6629 9.375 21.0777 9.2803 21.4261 9.09091C21.7765 8.90152 22.0587 8.63163 22.2727 8.28125C22.4886 7.93087 22.6364 7.51515 22.7159 7.03409C22.7955 6.57197 22.7879 6.17519 22.6932 5.84375C22.6004 5.51042 22.4176 5.25473 22.1449 5.0767C21.8741 4.89678 21.5114 4.80682 21.0568 4.80682H19.9062L19.1506 9.375ZM24 10L24.7273 5.63636H25.375L25.2614 6.29545H25.3068C25.4205 6.07955 25.5938 5.90436 25.8267 5.76989C26.0597 5.63542 26.3068 5.56818 26.5682 5.56818C26.6193 5.56818 26.6809 5.56913 26.7528 5.57102C26.8248 5.57102 26.8807 5.57386 26.9205 5.57955L26.8068 6.26136C26.7841 6.25568 26.733 6.24716 26.6534 6.2358C26.5739 6.22254 26.4886 6.21591 26.3977 6.21591C26.1856 6.21591 25.9896 6.26042 25.8097 6.34943C25.6297 6.43655 25.4792 6.55777 25.358 6.71307C25.2367 6.86648 25.1591 7.04167 25.125 7.23864L24.6705 10H24ZM26.9922 10L27.7195 5.63636H28.3899L27.6626 10H26.9922ZM28.2592 4.89773C28.1286 4.89773 28.0159 4.85322 27.9212 4.7642C27.8284 4.67519 27.782 4.56818 27.782 4.44318C27.782 4.31818 27.8284 4.21117 27.9212 4.12216C28.0159 4.03314 28.1286 3.98864 28.2592 3.98864C28.3899 3.98864 28.5017 4.03314 28.5945 4.12216C28.6892 4.21117 28.7365 4.31818 28.7365 4.44318C28.7365 4.56818 28.6892 4.67519 28.5945 4.7642C28.5017 4.85322 28.3899 4.89773 28.2592 4.89773ZM33.1861 5.63636L30.8452 10H30.1634L29.277 5.63636H29.9759L30.6009 9.11364H30.6463L32.4304 5.63636H33.1861ZM33.3438 10L34.071 5.63636H34.7415L34.0142 10H33.3438ZM34.6108 4.89773C34.4801 4.89773 34.3674 4.85322 34.2727 4.7642C34.1799 4.67519 34.1335 4.56818 34.1335 4.44318C34.1335 4.31818 34.1799 4.21117 34.2727 4.12216C34.3674 4.03314 34.4801 3.98864 34.6108 3.98864C34.7415 3.98864 34.8532 4.03314 34.946 4.12216C35.0407 4.21117 35.0881 4.31818 35.0881 4.44318C35.0881 4.56818 35.0407 4.67519 34.946 4.7642C34.8532 4.85322 34.7415 4.89773 34.6108 4.89773ZM36.3445 7.375L35.9126 10H35.2422L35.9695 5.63636H36.6172L36.5036 6.31818H36.5604C36.6967 6.09659 36.8814 5.91856 37.1143 5.78409C37.3473 5.64773 37.6286 5.57955 37.9581 5.57955C38.2498 5.57955 38.496 5.64015 38.6967 5.76136C38.8994 5.88068 39.0424 6.0625 39.1257 6.30682C39.2109 6.54924 39.2232 6.85606 39.1626 7.22727L38.6967 10H38.0263L38.4808 7.27273C38.5376 6.93182 38.4931 6.66477 38.3473 6.47159C38.2034 6.27841 37.9751 6.18182 37.6626 6.18182C37.4467 6.18182 37.2469 6.22822 37.0632 6.32102C36.8814 6.41383 36.727 6.54924 36.6001 6.72727C36.4751 6.9053 36.3899 7.12121 36.3445 7.375ZM41.4105 11.7273C41.0848 11.7273 40.812 11.6856 40.5923 11.6023C40.3726 11.5208 40.1965 11.4129 40.0639 11.2784C39.9313 11.1458 39.831 11.0038 39.7628 10.8523L40.3651 10.4773C40.4105 10.5568 40.4692 10.6477 40.5412 10.75C40.6132 10.8542 40.7221 10.9441 40.8679 11.0199C41.0156 11.0975 41.223 11.1364 41.4901 11.1364C41.8404 11.1364 42.1473 11.0511 42.4105 10.8807C42.6738 10.7102 42.8366 10.4432 42.8991 10.0795L43.0355 9.19318H42.9787C42.9181 9.27273 42.8338 9.37121 42.7259 9.48864C42.6179 9.60417 42.473 9.70739 42.2912 9.7983C42.1094 9.88731 41.8764 9.93182 41.5923 9.93182C41.2382 9.93182 40.9351 9.84848 40.6832 9.68182C40.4313 9.51515 40.2505 9.27273 40.1406 8.95455C40.0327 8.63636 40.0166 8.25 40.0923 7.79545C40.1662 7.34848 40.3082 6.95928 40.5185 6.62784C40.7306 6.29451 40.992 6.03693 41.3026 5.85511C41.6132 5.6714 41.9522 5.57955 42.3196 5.57955C42.6037 5.57955 42.8215 5.62689 42.973 5.72159C43.1264 5.81439 43.2382 5.92045 43.3082 6.03977C43.3783 6.1572 43.4313 6.25379 43.4673 6.32955H43.5355L43.6491 5.63636H44.2969L43.5582 10.125C43.4957 10.5 43.3603 10.8049 43.152 11.0398C42.9437 11.2765 42.688 11.4498 42.3849 11.5597C42.0819 11.6714 41.7571 11.7273 41.4105 11.7273ZM41.7628 9.32955C42.0298 9.32955 42.2675 9.26799 42.4759 9.14489C42.6861 9.02178 42.8603 8.8447 42.9986 8.61364C43.1368 8.38258 43.2325 8.10606 43.2855 7.78409C43.3385 7.4697 43.3348 7.19223 43.2741 6.9517C43.2135 6.71117 43.099 6.52273 42.9304 6.38636C42.7637 6.25 42.545 6.18182 42.2741 6.18182C41.9882 6.18182 41.741 6.25379 41.5327 6.39773C41.3262 6.54167 41.1586 6.73485 41.0298 6.97727C40.901 7.2197 40.812 7.48864 40.7628 7.78409C40.7135 8.08712 40.7154 8.35511 40.7685 8.58807C40.8215 8.81913 40.9295 9.00095 41.0923 9.13352C41.2571 9.2642 41.4806 9.32955 41.7628 9.32955ZM51.7741 6C51.7457 5.80871 51.6965 5.63731 51.6264 5.4858C51.5582 5.33239 51.4673 5.20265 51.3537 5.09659C51.2401 4.98864 51.1027 4.90625 50.9418 4.84943C50.7827 4.79072 50.598 4.76136 50.3878 4.76136C50.0431 4.76136 49.7098 4.85038 49.3878 5.02841C49.0677 5.20644 48.7902 5.46875 48.5554 5.81534C48.3224 6.16193 48.1643 6.58712 48.081 7.09091C47.9976 7.5947 48.0062 8.01989 48.1065 8.36648C48.2088 8.71307 48.384 8.97538 48.6321 9.15341C48.8821 9.33144 49.187 9.42045 49.5469 9.42045C49.8802 9.42045 50.1908 9.34943 50.4787 9.20739C50.7666 9.06345 51.008 8.8608 51.2031 8.59943C51.3982 8.33617 51.5241 8.02652 51.581 7.67045L51.7855 7.71591H50.0355L50.1491 7.09091H52.3651L52.2514 7.71591C52.1757 8.19697 52.0071 8.61458 51.7457 8.96875C51.4844 9.32292 51.1586 9.59659 50.7685 9.78977C50.3783 9.98295 49.9522 10.0795 49.4901 10.0795C48.9749 10.0795 48.5431 9.95833 48.1946 9.71591C47.8461 9.47348 47.6009 9.12879 47.4588 8.68182C47.3168 8.23485 47.2969 7.70455 47.3991 7.09091C47.473 6.63068 47.6018 6.21686 47.7855 5.84943C47.9711 5.48011 48.1984 5.16572 48.4673 4.90625C48.7382 4.64678 49.0402 4.44792 49.3736 4.30966C49.7088 4.1714 50.062 4.10227 50.4332 4.10227C50.7401 4.10227 51.0185 4.14867 51.2685 4.24148C51.5204 4.33239 51.7372 4.46212 51.919 4.63068C52.1009 4.79735 52.242 4.99716 52.3423 5.23011C52.4427 5.46117 52.4957 5.7178 52.5014 6H51.7741ZM52.9922 10L53.7195 5.63636H54.3672L54.2536 6.29545H54.299C54.4126 6.07955 54.5859 5.90436 54.8189 5.76989C55.0518 5.63542 55.299 5.56818 55.5604 5.56818C55.6115 5.56818 55.6731 5.56913 55.745 5.57102C55.817 5.57102 55.8729 5.57386 55.9126 5.57955L55.799 6.26136C55.7763 6.25568 55.7251 6.24716 55.6456 6.2358C55.5661 6.22254 55.4808 6.21591 55.3899 6.21591C55.1778 6.21591 54.9818 6.26042 54.8018 6.34943C54.6219 6.43655 54.4714 6.55777 54.3501 6.71307C54.2289 6.86648 54.1513 7.04167 54.1172 7.23864L53.6626 10H52.9922ZM57.6527 10.0909C57.2512 10.0909 56.915 9.99527 56.6442 9.80398C56.3733 9.61269 56.1821 9.3447 56.0703 9C55.9605 8.6553 55.9425 8.25379 56.0163 7.79545C56.0883 7.34848 56.2313 6.95928 56.4453 6.62784C56.6612 6.29451 56.9292 6.03693 57.2493 5.85511C57.5713 5.6714 57.9254 5.57955 58.3118 5.57955C58.7133 5.57955 59.0485 5.67614 59.3175 5.86932C59.5883 6.06061 59.7796 6.32955 59.8913 6.67614C60.0031 7.02083 60.022 7.42424 59.9482 7.88636C59.8762 8.32955 59.7313 8.71686 59.5135 9.0483C59.2976 9.37784 59.0296 9.63447 58.7095 9.81818C58.3913 10 58.0391 10.0909 57.6527 10.0909ZM57.6641 9.48864C57.9709 9.48864 58.237 9.41004 58.4624 9.25284C58.6896 9.09564 58.8733 8.88826 59.0135 8.63068C59.1555 8.37311 59.2512 8.0947 59.3004 7.79545C59.3459 7.51136 59.344 7.24716 59.2947 7.00284C59.2455 6.75663 59.1404 6.55871 58.9794 6.40909C58.8184 6.25758 58.5921 6.18182 58.3004 6.18182C57.9936 6.18182 57.7256 6.26136 57.4964 6.42045C57.2692 6.57955 57.0855 6.78883 56.9453 7.0483C56.8052 7.30777 56.7114 7.58712 56.6641 7.88636C56.6186 8.17045 56.6196 8.43466 56.6669 8.67898C56.7161 8.9214 56.8213 9.11742 56.9822 9.26705C57.1451 9.41477 57.3724 9.48864 57.6641 9.48864ZM61.4652 10L60.8629 5.63636H61.5675L61.9538 8.97727H61.9993L63.4879 5.63636H64.2038L64.5675 8.96591H64.6129L66.1129 5.63636H66.8175L64.7607 10H64.1016L63.7038 6.64773H63.6357L62.1243 10H61.4652ZM69.6016 5.63636L69.5107 6.20455H67.2493L67.3402 5.63636H69.6016ZM68.1697 4.59091H68.8402L68.147 8.75C68.1167 8.93939 68.1214 9.08144 68.1612 9.17614C68.2029 9.26894 68.2654 9.33144 68.3487 9.36364C68.4339 9.39394 68.5258 9.40909 68.6243 9.40909C68.6982 9.40909 68.7588 9.4053 68.8061 9.39773C68.8535 9.38826 68.8913 9.38068 68.9197 9.375L68.9652 9.97727C68.9141 9.99432 68.8449 10.0114 68.7578 10.0284C68.6726 10.0473 68.5675 10.0568 68.4425 10.0568C68.2531 10.0568 68.075 10.0161 67.9084 9.93466C67.7417 9.85322 67.6139 9.72917 67.5249 9.5625C67.4358 9.39583 67.4122 9.18561 67.4538 8.93182L68.1697 4.59091ZM71.0788 7.375L70.647 10H69.9766L70.9425 4.18182H71.6129L71.2607 6.31818H71.3175C71.4538 6.09091 71.6357 5.91098 71.8629 5.77841C72.0921 5.64583 72.38 5.57955 72.7266 5.57955C73.022 5.57955 73.2711 5.6392 73.4737 5.75852C73.6783 5.87595 73.8222 6.05682 73.9055 6.30114C73.9908 6.54356 74.0031 6.85227 73.9425 7.22727L73.4766 10H72.8061L73.2607 7.27273C73.3175 6.92614 73.2711 6.65814 73.1214 6.46875C72.9737 6.27746 72.7436 6.18182 72.4311 6.18182C72.2114 6.18182 72.0069 6.22822 71.8175 6.32102C71.63 6.41383 71.4709 6.54924 71.3402 6.72727C71.2114 6.9053 71.1243 7.12121 71.0788 7.375Z" fill="#DADADA"/>
<path d="M105 15L99 21V15L105 15Z" fill="#660000"/>
</svg>
